<svg width="1069" height="170" viewBox="0 0 1069 170" fill="none" xmlns="http://www.w3.org/2000/svg">
<path d="M73.9973 35.0579C54.1616 69.8286 42.9756 83.2381 35.8964 77.1848C30.9901 72.9896 47.7987 41.7206 58.7276 21.3898C62.1781 14.9707 65.0426 9.64207 66.4524 6.60013C66.7845 5.88338 66.1105 5.51842 65.5618 6.11847C40.0106 34.0615 -21.3347 135.895 7.5775 162.983C8.93141 164.252 11.0512 163.631 11.7989 161.933L33.1473 113.459C34.035 111.443 36.5449 110.432 38.7533 111.201L48.8546 114.714C51.063 115.483 52.1337 117.739 51.246 119.755L31.2362 165.189C30.3407 167.223 31.8971 169.466 34.0878 169.095C74.8305 162.188 98.0507 93.0493 117.5 36.5C124 14.5 124 14.5 128 0C119.318 15.677 82.7367 82.7294 70.4985 81.4891C61.0082 80.5273 63.8387 71.85 70.8524 50.3486C72.2789 45.9755 73.8785 41.072 75.5826 35.595C75.865 34.6874 74.4765 34.218 73.9973 35.0579Z" fill="#FF5C00"/>
<path d="M201.26 128.39H179.215L172.223 107.818H138.919L131.926 128.39H110L144.963 32.6648H166.178L201.26 128.39ZM155.274 60.015L145.556 88.3165H165.586L155.986 60.015H155.274Z" fill="black"/>
<path d="M209.095 158V57.3989H229.125V65.8418H229.836C231.969 62.6707 234.695 60.2132 238.014 58.4691C241.332 56.6458 244.848 55.7341 248.562 55.7341C254.172 55.7341 259.071 57.2403 263.258 60.2528C267.525 63.186 270.804 67.3876 273.096 72.8577C275.387 78.3277 276.533 84.7491 276.533 92.1217C276.533 99.8115 275.387 106.51 273.096 112.218C270.804 117.926 267.525 122.326 263.258 125.418C258.992 128.509 254.014 130.055 248.325 130.055C244.532 130.055 241.016 129.144 237.777 127.32C234.616 125.576 231.969 123.119 229.836 119.948H229.125V158H209.095ZM228.651 92.9541C228.651 98.5034 229.876 102.943 232.325 106.272C234.774 109.523 238.014 111.148 242.043 111.148C246.31 111.148 249.708 109.523 252.236 106.272C254.765 102.943 256.029 98.5034 256.029 92.9541C256.029 87.3255 254.804 82.8861 252.355 79.6358C249.905 76.3062 246.626 74.6414 242.518 74.6414C238.33 74.6414 234.972 76.3062 232.443 79.6358C229.915 82.8861 228.651 87.3255 228.651 92.9541Z" fill="black"/>
<path d="M306.062 130.055C299.82 130.055 294.645 128.272 290.536 124.704C286.507 121.057 284.492 116.063 284.492 109.721C284.492 104.806 285.875 100.485 288.64 96.7594C291.406 93.0334 295.317 90.1795 300.374 88.1976C305.509 86.1364 311.475 85.1058 318.27 85.1058H324.67V83.3221C324.67 79.834 323.682 77.1782 321.707 75.3549C319.811 73.4523 317.124 72.5009 313.648 72.5009C308.67 72.5009 304.166 74.9585 300.136 79.8736L287.099 69.8848C294.764 60.451 304.482 55.7341 316.255 55.7341C321.865 55.7341 326.843 56.8836 331.189 59.1826C335.534 61.4023 338.892 64.5337 341.263 68.5768C343.633 72.6199 344.818 77.2971 344.818 82.6086V128.39H324.67V120.304H323.959C322.537 123.475 320.245 125.893 317.085 127.558C313.924 129.223 310.25 130.055 306.062 130.055ZM312.344 113.526C315.9 113.526 318.823 112.733 321.114 111.148C323.485 109.483 324.67 107.224 324.67 104.37V101.516H320.285C315.149 101.516 311.317 102.031 308.788 103.062C306.26 104.092 304.996 105.836 304.996 108.294C304.996 109.8 305.628 111.069 306.892 112.099C308.235 113.051 310.053 113.526 312.344 113.526Z" fill="black"/>
<path d="M390.534 130.055C383.265 130.055 376.944 128.549 371.571 125.537C366.277 122.524 362.169 118.243 359.245 112.694C356.401 107.065 354.978 100.485 354.978 92.9541C354.978 85.4229 356.401 78.843 359.245 73.2144C362.169 67.5858 366.277 63.2653 371.571 60.2528C376.944 57.2403 383.265 55.7341 390.534 55.7341C397.013 55.7341 402.9 57.6367 408.194 61.442C413.488 65.2472 417.359 70.4001 419.809 76.9007L401.201 83.9167C400.174 80.9835 398.554 78.7241 396.342 77.1386C394.208 75.5531 391.838 74.7603 389.231 74.7603C385.043 74.7603 381.685 76.4251 379.156 79.7547C376.707 83.005 375.482 87.4048 375.482 92.9541C375.482 98.5034 376.707 102.903 379.156 106.154C381.685 109.404 385.043 111.029 389.231 111.029C391.838 111.029 394.208 110.236 396.342 108.651C398.554 106.986 400.174 104.727 401.201 101.873L419.809 108.889C417.359 115.389 413.488 120.542 408.194 124.347C402.9 128.153 397.013 130.055 390.534 130.055Z" fill="black"/>
<path d="M430.161 128.39V32.6648H450.191V66.6742H450.784C452.838 63.2653 455.525 60.6096 458.843 58.7069C462.241 56.725 466.112 55.7341 470.458 55.7341C477.49 55.7341 482.942 58.0331 486.814 62.6311C490.764 67.1498 492.74 73.6108 492.74 82.0141V128.39H472.71V86.6517C472.71 83.005 471.801 80.1511 469.984 78.0899C468.167 75.9494 465.678 74.8792 462.517 74.8792C458.804 74.8792 455.801 76.0684 453.51 78.4466C451.297 80.7456 450.191 83.9167 450.191 87.9597V128.39H430.161Z" fill="black"/>
<path d="M569.86 87.8408C569.86 92.8352 569.346 97.1161 568.319 100.684H523.993C525.494 109.245 530.314 113.526 538.452 113.526C541.296 113.526 543.864 112.694 546.156 111.029C548.447 109.364 550.264 107.065 551.608 104.132L568.082 111.267C565.711 117.213 561.919 121.85 556.704 125.18C551.568 128.43 545.445 130.055 538.333 130.055C531.222 130.055 524.98 128.589 519.607 125.655C514.235 122.643 510.086 118.402 507.163 112.932C504.318 107.382 502.896 100.921 502.896 93.5487C502.896 85.8589 504.318 79.1998 507.163 73.5712C510.007 67.8633 513.997 63.4635 519.133 60.3717C524.348 57.28 530.432 55.7341 537.385 55.7341C543.864 55.7341 549.553 57.0421 554.452 59.6582C559.351 62.2743 563.144 66.0003 565.83 70.8361C568.516 75.672 569.86 81.3402 569.86 87.8408ZM549.474 84.1545C549.474 80.5871 548.368 77.6935 546.156 75.4738C544.022 73.2541 541.099 72.1442 537.385 72.1442C530.59 72.1442 526.244 76.1476 524.348 84.1545H549.474Z" fill="black"/>
<path d="M656.161 130.055C647.47 130.055 639.884 127.915 633.405 123.634C626.926 119.274 622.067 113.526 618.828 106.391L636.842 97.9485C638.502 102.229 641.03 105.48 644.428 107.699C647.825 109.919 651.776 111.029 656.28 111.029C660.941 111.029 664.655 110.157 667.42 108.413C670.186 106.669 671.569 104.409 671.569 101.635C671.569 99.6529 671.055 98.0278 670.028 96.7594C669.001 95.4117 667.223 94.1829 664.694 93.073C662.166 91.9632 658.492 90.7344 653.672 89.3867C647.351 87.5634 642.097 85.74 637.909 83.9167C633.721 82.0933 630.008 79.279 626.768 75.4738C623.608 71.5893 622.028 66.476 622.028 60.1339C622.028 54.5846 623.568 49.5902 626.65 45.1507C629.81 40.7113 634.077 37.2628 639.45 34.8052C644.902 32.2684 650.907 31 657.465 31C673.979 31 685.87 38.5312 693.139 53.5936L675.361 62.2743C673.307 57.9934 670.778 54.9017 667.776 52.9991C664.853 51.0172 661.336 50.0262 657.228 50.0262C653.277 50.0262 649.959 50.8983 647.272 52.6423C644.586 54.3864 643.242 56.5268 643.242 59.0637C643.242 61.2041 643.796 62.9482 644.902 64.2959C646.008 65.5643 647.786 66.7534 650.235 67.8633C652.764 68.8939 656.477 70.083 661.376 71.4307C667.618 73.1748 672.833 74.9585 677.021 76.7818C681.208 78.5259 684.882 81.3402 688.043 85.2247C691.203 89.03 692.784 94.1036 692.784 100.446C692.784 106.391 691.203 111.624 688.043 116.142C684.961 120.582 680.655 123.991 675.124 126.369C669.593 128.826 663.272 130.055 656.161 130.055Z" fill="black"/>
<path d="M704.122 128.39V32.6648H724.151V66.6742H724.744C726.798 63.2653 729.485 60.6096 732.803 58.7069C736.201 56.725 740.072 55.7341 744.418 55.7341C751.45 55.7341 756.902 58.0331 760.774 62.6311C764.724 67.1498 766.7 73.6108 766.7 82.0141V128.39H746.67V86.6517C746.67 83.005 745.761 80.1511 743.944 78.0899C742.127 75.9494 739.638 74.8792 736.477 74.8792C732.764 74.8792 729.761 76.0684 727.47 78.4466C725.258 80.7456 724.151 83.9167 724.151 87.9597V128.39H704.122Z" fill="black"/>
<path d="M843.82 87.8408C843.82 92.8352 843.306 97.1161 842.279 100.684H797.953C799.454 109.245 804.274 113.526 812.412 113.526C815.257 113.526 817.825 112.694 820.116 111.029C822.407 109.364 824.225 107.065 825.568 104.132L842.042 111.267C839.672 117.213 835.879 121.85 830.664 125.18C825.528 128.43 819.405 130.055 812.294 130.055C805.182 130.055 798.94 128.589 793.568 125.655C788.195 122.643 784.047 118.402 781.123 112.932C778.279 107.382 776.856 100.921 776.856 93.5487C776.856 85.8589 778.279 79.1998 781.123 73.5712C783.968 67.8633 787.958 63.4635 793.094 60.3717C798.308 57.28 804.392 55.7341 811.345 55.7341C817.825 55.7341 823.513 57.0421 828.412 59.6582C833.311 62.2743 837.104 66.0003 839.79 70.8361C842.477 75.672 843.82 81.3402 843.82 87.8408ZM823.434 84.1545C823.434 80.5871 822.328 77.6935 820.116 75.4738C817.983 73.2541 815.059 72.1442 811.345 72.1442C804.55 72.1442 800.205 76.1476 798.308 84.1545H823.434Z" fill="black"/>
<path d="M854.701 128.39V57.3989H874.731V66.6742H875.324C877.378 63.2653 880.064 60.6096 883.383 58.7069C886.78 56.725 890.652 55.7341 894.998 55.7341C902.03 55.7341 907.482 58.0331 911.354 62.6311C915.304 67.1498 917.28 73.6108 917.28 82.0141V128.39H897.25V86.6517C897.25 83.005 896.341 80.1511 894.524 78.0899C892.707 75.9494 890.218 74.8792 887.057 74.8792C883.343 74.8792 880.341 76.0684 878.05 78.4466C875.837 80.7456 874.731 83.9167 874.731 87.9597V128.39H854.701Z" fill="black"/>
<path d="M951.157 128.39L923.186 57.3989H945.586L961.705 104.251H962.416L977.468 57.3989H999.75L960.283 158H938.831L951.157 128.39Z" fill="black"/>
<path d="M1069 57.3989V128.39H1048.97V119.353H1048.26C1046.28 122.762 1043.64 125.378 1040.32 127.201C1037.08 129.104 1033.29 130.055 1028.94 130.055C1021.91 130.055 1016.38 127.796 1012.35 123.277C1008.4 118.679 1006.42 112.297 1006.42 104.132V57.3989H1026.45V99.4944C1026.45 103.062 1027.4 105.916 1029.3 108.056C1031.19 110.197 1033.68 111.267 1036.76 111.267C1040.48 111.267 1043.44 110.117 1045.65 107.818C1047.86 105.44 1048.97 102.269 1048.97 98.3052V57.3989H1069Z" fill="black"/>
</svg>
