<?xml version="1.0" standalone="no"?><!DOCTYPE svg PUBLIC "-//W3C//DTD SVG 1.1//EN" "http://www.w3.org/Graphics/SVG/1.1/DTD/svg11.dtd"><svg t="1630213317727" class="icon" viewBox="0 0 1024 1024" version="1.1" xmlns="http://www.w3.org/2000/svg" p-id="1650" xmlns:xlink="http://www.w3.org/1999/xlink" width="200" height="200"><defs><style type="text/css"></style></defs><path d="M768 85.333333h-341.333333a85.333333 85.333333 0 0 0-85.333334 85.333334v512a85.333333 85.333333 0 0 0 85.333334 85.333333h341.333333a85.333333 85.333333 0 0 0 85.333333-85.333333V170.666667a85.333333 85.333333 0 0 0-85.333333-85.333334z m-341.333333 85.333334h341.333333v512h-341.333333V170.666667z" fill="#049DEE" p-id="1651"></path><path d="M213.333333 213.333333a42.666667 42.666667 0 0 1 42.368 37.674667L256 256v597.333333h384a42.666667 42.666667 0 0 1 4.992 85.034667L640 938.666667H256a85.333333 85.333333 0 0 1-85.12-78.933334L170.666667 853.333333V256a42.666667 42.666667 0 0 1 42.666666-42.666667z" fill="#03CD8E" p-id="1652"></path></svg>