<svg height="200" viewBox="0 0 1024 1024" width="200" xmlns="http://www.w3.org/2000/svg"><path d="m768 85.333333h-341.333333a85.333333 85.333333 0 0 0 -85.333334 85.333334v512a85.333333 85.333333 0 0 0 85.333334 85.333333h341.333333a85.333333 85.333333 0 0 0 85.333333-85.333333v-512a85.333333 85.333333 0 0 0 -85.333333-85.333334zm-341.333333 85.333334h341.333333v512h-341.333333z" fill="#000033"/><path d="m213.333333 213.333333a42.666667 42.666667 0 0 1 42.368 37.674667l.298667 4.992v597.333333h384a42.666667 42.666667 0 0 1 4.992 85.034667l-4.992.298667h-384a85.333333 85.333333 0 0 1 -85.12-78.933334l-.213333-6.4v-597.333333a42.666667 42.666667 0 0 1 42.666666-42.666667z" fill="#ff5c00"/></svg>