<svg height="200" viewBox="0 0 1024 1024" width="200" xmlns="http://www.w3.org/2000/svg"><path d="m896 85.333333h-298.666667a42.666667 42.666667 0 0 0 -42.666666 42.666667v298.666667a42.666667 42.666667 0 0 0 42.666666 42.666666h298.666667a42.666667 42.666667 0 0 0 42.666667-42.666666v-298.666667a42.666667 42.666667 0 0 0 -42.666667-42.666667zm-42.666667 85.333334v213.333333h-213.333333v-213.333333zm-426.666666 384h-298.666667a42.666667 42.666667 0 0 0 -42.666667 42.666666v298.666667a42.666667 42.666667 0 0 0 42.666667 42.666667h298.666667a42.666667 42.666667 0 0 0 42.666666-42.666667v-298.666667a42.666667 42.666667 0 0 0 -42.666666-42.666666zm-42.666667 85.333333v213.333333h-213.333333v-213.333333z" fill="#ff5c00"/><path d="m426.666667 85.333333h-298.666667a42.666667 42.666667 0 0 0 -42.666667 42.666667v298.666667a42.666667 42.666667 0 0 0 42.666667 42.666666h298.666667a42.666667 42.666667 0 0 0 42.666666-42.666666v-298.666667a42.666667 42.666667 0 0 0 -42.666666-42.666667zm-42.666667 85.333334v213.333333h-213.333333v-213.333333zm512 384h-298.666667a42.666667 42.666667 0 0 0 -42.666666 42.666666v298.666667a42.666667 42.666667 0 0 0 42.666666 42.666667h298.666667a42.666667 42.666667 0 0 0 42.666667-42.666667v-298.666667a42.666667 42.666667 0 0 0 -42.666667-42.666666zm-42.666667 85.333333v213.333333h-213.333333v-213.333333z" fill="#000033"/></svg>