<svg height="200" viewBox="0 0 1024 1024" width="200" xmlns="http://www.w3.org/2000/svg"><path d="m221.866667 85.333333h580.309333a85.333333 85.333333 0 0 1 68.522667 136.064l-4.48 5.546667-226.218667 258.389333v325.333334a42.666667 42.666667 0 0 1 -37.674667 42.368l-4.992.298666a42.666667 42.666667 0 0 1 -42.368-37.674666l-.298666-4.992v-341.333334a42.666667 42.666667 0 0 1 7.424-24.021333l3.157333-4.096 236.757333-270.549333-580.053333.042666 236.8 270.506667a42.666667 42.666667 0 0 1 10.24 22.997333l.341333 5.12v426.666667a42.666667 42.666667 0 0 1 -85.034666 4.992l-.298667-4.992v-410.624l-226.176-258.389333a85.333333 85.333333 0 0 1 -16.341333-84.821334l2.688-6.613333a85.333333 85.333333 0 0 1 71.04-49.92z" fill="#049dee"/><path d="m578.261333 772.522667a42.666667 42.666667 0 0 1 42.496 73.813333l-4.352 2.474667-170.666666 85.333333a42.666667 42.666667 0 0 1 -42.496-73.813333l4.352-2.474667z" fill="#03cd8e"/></svg>