<?xml version="1.0" encoding="UTF-8"?>
<svg width="600px" height="400px" viewBox="0 0 600 400" version="1.1" xmlns="http://www.w3.org/2000/svg" xmlns:xlink="http://www.w3.org/1999/xlink">
    <title>高性能</title>
    <g id="高性能" stroke="none" stroke-width="1" fill="none" fill-rule="evenodd">
        <rect fill="transparent" x="0" y="0" width="600" height="400"></rect>
        <path d="M143.913113,330.449603 C71.4572946,330.449603 41.8868873,271.300076 41.8868873,205.465985 C41.8868873,139.631893 70.9607816,99.097542 108.443016,99.097542 C145.92525,99.097542 135.278104,138.467206 179.134953,138.467206 C222.991802,138.467206 246.743473,45.4543817 309.546971,45.4543817 C372.350468,45.4543817 324.605166,133.122076 380.176844,133.122076 C435.748522,133.122076 498.141856,111.064183 498.141856,201.060351 C498.141856,291.056519 609.971515,333.296015 526.382832,333.296015 C442.794149,333.296015 143.913113,330.449603 143.913113,330.449603 Z" id="bg_4_" fill="#F3F9FF" fill-rule="nonzero"></path>
        <g id="plant_30_" transform="translate(487.142114, 199.648855)" fill-rule="nonzero">
            <path d="M5.69370884,110.480427 C1.22149393,100.003649 -5.44994974,85.1599695 8.18526863,76.3946412 C21.820487,67.629313 9.37258232,62.4391145 8.93003813,49.7338473 C8.48749393,37.0294809 22.405149,33.7642137 21.9886898,27.7399084 C21.5722305,21.7156031 20.8814298,11.0631756 22.1658873,6.51792366 C24.3156447,-1.08812214 40.4046447,-4.54164885 42.0461958,16.8749008 C43.0778995,30.3323053 44.4648977,38.4580916 51.6319549,48.0575267 C58.7990121,57.6569618 43.011338,67.8067634 43.303669,75.5344122 C43.596,83.2620611 51.3747036,82.1171908 50.5237955,98.495771 C49.6728873,114.874351 38.923201,127.258947 28.702409,126.528427 C21.7611213,126.031206 9.77644887,120.043832 5.69370884,110.480427 Z" id="Path" fill="#DCEEFD"></path>
            <path d="M32.0304853,132.067221 C32.3453033,132.067221 32.62774,131.847435 32.695201,131.526763 C32.9389601,130.365679 32.222974,128.137191 30.7100485,123.609053 C28.1591231,115.976885 24.3066499,104.442611 25.1530607,93.8487328 C25.6837539,87.2092061 27.3226066,80.1310076 28.9083899,73.2879084 C31.1759792,63.4975115 33.3176412,54.2502748 32.067364,47.1459542 C30.664175,39.1687939 31.6068302,28.8379389 32.1708042,22.6650076 C32.5009133,19.0529466 32.650227,17.2838473 32.4586378,16.5281069 C32.3659913,16.1623969 31.9954055,15.9390076 31.6320156,16.0362901 C31.2677262,16.1290687 31.048253,16.4992824 31.1408995,16.8640916 C31.2839168,17.4270687 31.0671421,19.7969771 30.8170867,22.5407023 C30.2468163,28.7811908 29.2924679,39.2264427 30.7289376,47.3837557 C31.9315425,54.2142443 29.8195633,63.3299695 27.5843553,72.9807481 C25.9877782,79.8724885 24.3363328,87.000229 23.7975442,93.7406412 C22.9295459,104.612855 26.8359879,116.305664 29.4201941,124.042321 C30.5598354,127.45171 31.5438666,130.397206 31.36487,131.245725 C31.2875147,131.614137 31.5231785,131.976244 31.8901664,132.052809 C31.9360399,132.061817 31.9837123,132.067221 32.0304853,132.067221 Z" id="Path" fill="#D0E7FE"></path>
            <path d="M33.5416118,60.9825802 C36.9731282,60.9825802 39.5015667,57.9352977 40.4891958,55.9752366 C40.6582981,55.6401527 40.5242756,55.2303053 40.1887695,55.0609618 C39.8550624,54.8880153 39.444,55.0249313 39.2757972,55.3600153 C39.1552669,55.5951145 36.2796291,61.1357099 31.634714,59.2215878 C31.2848163,59.0756641 30.8899445,59.2432061 30.7469272,59.5918015 C30.6039099,59.9403969 30.7694142,60.3376336 31.1166135,60.480855 C31.9648232,60.8303511 32.7761542,60.9825802 33.5416118,60.9825802 Z" id="Path" fill="#D0E7FE"></path>
            <path d="M31.6805875,49.7131298 C31.9972045,49.7131298 32.2814402,49.4897405 32.3462028,49.1681679 C32.4208596,48.7997557 32.1824974,48.4403511 31.8146101,48.364687 C31.7426516,48.3502748 24.597182,46.827084 22.6030347,40.6622595 C22.4879012,40.3055573 22.1065217,40.1100916 21.7458302,40.2244885 C21.3887366,40.3397863 21.1935494,40.7244122 21.3086828,41.082916 C23.5519861,48.0151908 31.2200537,49.6347634 31.544766,49.7005191 C31.5906395,49.7095267 31.636513,49.7131298 31.6805875,49.7131298 Z" id="Path" fill="#D0E7FE"></path>
            <path d="M24.4793501,94.4756641 C24.8841161,94.4756641 34.0732045,94.3756794 36.3156083,86.7272977 C36.4208475,86.3669924 36.2148666,85.987771 35.854175,85.8823817 C35.4898856,85.7769924 35.1157019,85.9850687 35.0104627,86.3435725 C33.0217123,93.1308244 24.8085598,93.1281221 24.482948,93.1137099 C24.1096638,93.117313 23.7993432,93.4091603 23.7956954,93.7865802 C23.7912478,94.1612977 24.0916742,94.4702595 24.4667574,94.4756641 C24.4667574,94.4756641 24.4712548,94.4756641 24.4793501,94.4756641 Z" id="Path" fill="#D0E7FE"></path>
            <path d="M25.0406256,105.69287 C25.3059723,105.69287 25.5596256,105.536137 25.6684627,105.274015 C25.813279,104.928122 25.6495737,104.529084 25.3032738,104.384061 C25.1647539,104.325511 11.4584766,98.4867634 11.1607487,89.9574351 C11.1472565,89.5827176 10.8234437,89.3043817 10.4573553,89.2998779 C10.0822721,89.3133893 9.78814211,89.6286565 9.80163432,90.0051756 C10.1290451,99.4073435 24.1807227,105.389313 24.7779775,105.639725 C24.8643276,105.674855 24.9533761,105.69287 25.0406256,105.69287 Z" id="Path" fill="#D0E7FE"></path>
        </g>
        <g id="plant_29_" transform="translate(450.263432, 244.687023)" fill-rule="nonzero">
            <path d="M32.3875789,72.7546565 C35.3450693,65.8268855 39.7561196,56.0112672 30.7397314,50.214855 C21.7233432,44.4184427 29.9544853,40.9865344 30.2477158,32.5851145 C30.5409463,24.1836947 21.3365667,22.0254656 21.6127071,18.0413893 C21.887948,14.0582137 22.3448839,7.01424427 21.4957747,4.00839695 C20.0736967,-1.02146565 9.43554593,-3.30490076 8.34987348,10.8569008 C7.66806759,19.755542 6.75059792,25.1285954 2.01123744,31.4762748 C-2.72812305,37.8239542 7.71124263,44.535542 7.5187539,49.6455725 C7.32536568,54.7556031 2.18213865,53.9989618 2.74431369,64.8288397 C3.30648873,75.6587176 10.4150797,83.848458 17.173773,83.3656489 C21.7620208,83.037771 29.6873397,79.078916 32.3875789,72.7546565 Z" id="Path" fill="#8AE6B9"></path>
            <path d="M14.9718458,87.0290534 C14.7640659,87.0290534 14.576974,86.8840305 14.532,86.6723511 C14.3709931,85.904 14.8441196,84.4312519 15.8443414,81.4371145 C17.5308666,76.3901374 20.0790936,68.763374 19.5187175,61.7572366 C19.1679203,57.366916 18.0840468,52.6865496 17.035253,48.1611145 C15.5358198,41.6864275 14.1191386,35.5720458 14.9466603,30.8745649 C15.8749237,25.5996947 15.2506846,18.7683053 14.8782998,14.6860458 C14.6597262,12.2981221 14.5607834,11.1280305 14.6885095,10.6281069 C14.7496742,10.3858015 14.9943328,10.2380763 15.2353934,10.3029313 C15.4764541,10.3641832 15.6212704,10.6091908 15.5601057,10.8496947 C15.4656603,11.2217099 15.6086776,12.7890382 15.774182,14.6031756 C16.1510641,18.7295725 16.7824991,25.636626 15.8326482,31.0303969 C15.0375078,35.5477252 16.4335009,41.5747328 17.9122461,47.9566412 C18.9682357,52.5145038 20.0602045,57.2272977 20.4163986,61.6842748 C20.9902669,68.8732672 18.4069601,76.6054198 16.697948,81.7217557 C15.9441837,83.9763664 15.2938596,85.9238168 15.4116915,86.4849924 C15.4629619,86.7290992 15.3073518,86.9678015 15.0644922,87.019145 C15.0339099,87.0254504 15.0024281,87.0290534 14.9718458,87.0290534 Z" id="Path" fill="#44D690"></path>
            <path d="M13.9725234,40.0236183 C11.7040347,40.0236183 10.0319012,38.0086107 9.3779792,36.7124122 C9.26554419,36.4908244 9.35459272,36.2196947 9.5767643,36.108 C9.7980364,35.9936031 10.0687799,36.0845802 10.1803154,36.3061679 C10.2603692,36.462 12.16187,40.1254046 15.2335945,38.8598321 C15.4647608,38.7634504 15.7265095,38.8742443 15.8209549,39.1039389 C15.9154003,39.3336336 15.8056638,39.5975573 15.5762964,39.6912366 C15.0150208,39.9236336 14.4789307,40.0236183 13.9725234,40.0236183 Z" id="Path" fill="#44D690"></path>
            <path d="M15.2030121,32.5716031 C14.9934333,32.5716031 14.8063414,32.4238779 14.7631664,32.2112977 C14.713695,31.9671908 14.871104,31.7302901 15.1148631,31.6798473 C15.1625355,31.6699389 19.8875043,30.6628855 21.2061421,26.5869313 C21.2825979,26.3509313 21.5344523,26.2221221 21.7728146,26.2977863 C22.0093778,26.3743511 22.1380035,26.6283664 22.0615477,26.8652672 C20.578305,31.4492519 15.5079359,32.5202595 15.2929601,32.5634962 C15.2623778,32.5689008 15.232695,32.5716031 15.2030121,32.5716031 Z" id="Path" fill="#44D690"></path>
            <path d="M19.9657591,62.1715878 C19.697714,62.1715878 13.6217262,62.1058321 12.1384835,57.0480458 C12.0683241,56.8093435 12.2050451,56.5589313 12.4434073,56.4895725 C12.6844679,56.4202137 12.931825,56.5571298 13.0019844,56.7949313 C14.3170243,61.2825344 19.7480849,61.2807328 19.9630607,61.2717252 C20.2095182,61.2744275 20.4145997,61.4671908 20.4173254,61.7167023 C20.4199965,61.9644122 20.2221109,62.1688855 19.9738544,62.1724885 C19.9729549,62.1715878 19.9702565,62.1715878 19.9657591,62.1715878 Z" id="Path" fill="#44D690"></path>
            <path d="M19.5933744,69.5884733 C19.4179757,69.5884733 19.2506724,69.4848855 19.178714,69.3110382 C19.0833692,69.0822443 19.1913068,68.8183206 19.4206742,68.7228397 C19.5124211,68.6841069 28.5755823,64.8234351 28.7725685,59.182855 C28.7815633,58.935145 28.9956395,58.7513893 29.2375997,58.748687 C29.4858562,58.7576947 29.6801438,58.965771 29.671149,59.2152824 C29.4543744,65.4323511 20.1627452,69.3885038 19.7678735,69.5542443 C19.7103068,69.5767634 19.6518406,69.5884733 19.5933744,69.5884733 Z" id="Path" fill="#44D690"></path>
        </g>
        <g id="rocket" transform="translate(160.630849, 24.000000)" fill-rule="nonzero">
            <path d="M36.7320676,58.7261679 C24.5863882,58.7261679 14.7415789,78.4456794 14.7415789,102.770794 L14.7415789,297.30055 L36.7320676,297.30055 L58.7225563,297.30055 L58.7225563,102.770794 C58.7234558,78.4456794 48.877747,58.7261679 36.7320676,58.7261679 Z" id="Path" fill="#355AA2"></path>
            <polygon id="Path" fill="#355AA2" points="183.338324 108.177176 161.347835 108.177176 161.347835 297.302351 183.338324 297.302351 205.327913 297.302351 205.327913 108.177176"></polygon>
            <rect id="Rectangle" fill="#224380" x="14.7415789" y="168.837282" width="43.9818769" height="7.34032061"></rect>
            <rect id="Rectangle" fill="#224380" x="14.7415789" y="183.518824" width="43.9818769" height="7.34032061"></rect>
            <rect id="Rectangle" fill="#224380" x="161.346936" y="168.837282" width="43.9818769" height="7.34032061"></rect>
            <rect id="Rectangle" fill="#224380" x="161.346936" y="183.518824" width="43.9818769" height="7.34032061"></rect>
            <path d="M110.035196,0 C110.034296,0 110.032497,0 110.031598,0 L110.031598,0 C80.4629896,0.00720610687 58.7234558,58.5307023 58.7234558,88.0892519 L58.7234558,264.266855 C71.239721,264.266855 148.954799,264.266855 161.347835,264.266855 L161.347835,88.0892519 C161.347835,55.6554656 138.374215,0 110.035196,0 Z" id="Path" fill="#224380"></path>
            <polygon id="Path" fill="#DAE7FF" points="154.017073 352.356107 66.0533189 352.356107 80.7139445 315.652702 139.356447 315.652702"></polygon>
            <polygon id="Path" fill="#C3D3F3" points="142.288752 322.993023 139.356447 315.652702 80.7139445 315.652702 77.7816395 322.993023"></polygon>
            <path d="M202.813867,266.78629 C177.753452,241.690122 161.347835,209.280656 161.347835,173.789679 L161.347835,161.496962 L58.7234558,161.496962 L58.7234558,173.789679 C58.7234558,209.280656 42.3169393,241.691023 17.2574246,266.78629 C6.64535875,277.412595 0.0818526863,292.094137 0.0818526863,308.311481 L58.7243553,308.311481 L161.348735,308.311481 L219.991237,308.311481 C219.991237,292.094137 213.425932,277.412595 202.813867,266.78629 Z" id="Path" fill="#1B90FB"></path>
            <path d="M110.035196,29.363084 C81.6961768,29.363084 58.7234558,88.5207176 58.7234558,161.496962 L58.7234558,286.289618 C58.7234558,302.506061 71.8513674,315.652702 88.0447071,315.652702 L132.026584,315.652702 C148.219924,315.652702 161.347835,302.506061 161.347835,286.289618 L161.347835,161.496962 C161.347835,88.5207176 138.374215,29.363084 110.035196,29.363084 Z" id="Path" fill="#DCEEFD"></path>
            <path d="M58.7234558,161.496962 L58.7234558,286.289618 C58.7234558,302.506061 71.8513674,315.652702 88.0447071,315.652702 L110.035196,315.652702 L110.035196,29.363084 C81.6961768,29.363084 58.7234558,88.5207176 58.7234558,161.496962 Z" id="Path" fill="#F3F9FF"></path>
            <path d="M160.897196,315.652702 L59.1731958,315.652702 C58.9249393,315.652702 58.7234558,315.450931 58.7234558,315.202321 L58.7234558,264.267756 L161.347835,264.267756 L161.347835,315.202321 C161.347835,315.450931 161.145452,315.652702 160.897196,315.652702 Z" id="Path" fill="#224380"></path>
            <polygon id="Path" fill="#183168" points="110.035196 249.585313 102.704433 264.266855 102.704433 322.993023 110.035196 337.674565 117.365059 322.993023 117.365059 264.266855"></polygon>
            <rect id="Rectangle" fill="#AEC1E8" x="66.0533189" y="337.674565" width="87.9637539" height="14.681542"></rect>
            <rect id="Rectangle" fill="#224380" x="58.7234558" y="205.540687" width="102.62438" height="7.34032061"></rect>
            <rect id="Rectangle" fill="#224380" x="14.7415789" y="102.770794" width="43.9818769" height="7.34032061"></rect>
            <rect id="Rectangle" fill="#224380" x="161.347835" y="102.772595" width="43.980078" height="7.33401527"></rect>
            <path d="M125.554825,90.9852061 C122.877972,84.7699389 116.79299,80.7480305 110.035196,80.7480305 C103.277402,80.7480305 97.1861231,84.7627328 94.5227626,90.9852061 L81.0503501,85.1932977 C86.0253744,73.5725496 97.4001993,66.0673893 110.035196,66.0673893 C122.655801,66.0673893 134.030626,73.5734504 139.012846,85.1932977 L125.554825,90.9852061 Z" id="Path" fill="#224380"></path>
        </g>
        <g id="plant_28_" transform="translate(66.185442, 209.557252)" fill-rule="nonzero">
            <g id="Group" transform="translate(27.883882, 0.000000)">
                <path d="M3.82548873,98.2822901 C3.82548873,90.5825649 14.1398267,88.328855 14.1398267,83.0710992 C14.1398267,77.8124427 0.450639515,74.9957557 0.450639515,65.4179389 C0.450639515,55.8401221 14.1398267,57.1552366 14.1398267,49.8311298 C14.1398267,42.5070229 7.29478336,42.5070229 7.29478336,33.493084 C7.29478336,24.479145 25.0163397,0.441374046 32.8921872,0.441374046 C40.7680347,0.441374046 48.6447816,22.9766718 48.6447816,30.4881374 C48.6447816,37.9996031 35.3306776,41.3801679 35.3306776,47.7656794 C35.3306776,54.1511908 48.6447816,54.546626 48.6447816,60.8276489 C48.6447816,67.1086718 32.517104,72.775374 32.517104,77.4368244 C32.517104,82.0982748 44.1437834,85.1365496 44.1437834,93.9631298 C44.1437834,102.78971 32.9200711,120.441969 27.2659393,120.441969 C21.6127071,120.441969 3.82548873,105.982015 3.82548873,98.2822901 Z" id="Path" fill="#9E95E3"></path>
                <path d="M28.0152062,127.615649 C27.7300711,127.615649 27.4755182,127.410275 27.4251473,127.118427 C21.5047695,93.2929618 21.822286,69.5542443 23.13013,55.5960153 C24.5513085,40.424458 27.3423951,33.3723817 27.460227,33.0796336 C27.5843553,32.7715725 27.936052,32.6238473 28.2400763,32.7481527 C28.5476984,32.872458 28.6961127,33.2219542 28.5728839,33.5300153 C28.5441005,33.6002748 25.7161352,40.7667481 24.3165442,55.795084 C23.0230919,69.6686412 22.7190676,93.2686412 28.6079636,126.911252 C28.6646308,127.238229 28.4469567,127.549893 28.1204454,127.606641 C28.0844662,127.612947 28.0493865,127.615649 28.0152062,127.615649 Z" id="Path" fill="#877CD8"></path>
            </g>
            <path d="M4.1564974,109.131084 C1.19900693,102.203313 -3.21204333,92.3876947 5.80434489,86.5912824 C14.8207331,80.7948702 6.58959099,77.3629618 6.29636049,68.961542 C6.00312998,60.5601221 15.2075095,58.4018931 14.9313692,54.4178168 C14.6561282,50.4346412 14.1991924,43.3906718 15.0483016,40.3848244 C16.4703795,35.3549618 27.1085303,33.0715267 28.1942028,47.2333282 C28.8760087,56.1319695 29.7934783,61.5050229 34.5328388,67.8527023 C39.2721993,74.2003817 28.8328336,80.9119695 29.0253224,86.022 C29.2187106,91.1320305 34.3619376,90.3753893 33.7997626,101.205267 C33.2375875,112.035145 26.1289965,120.224885 19.3703033,119.742076 C14.781156,119.415099 6.85583709,115.455344 4.1564974,109.131084 Z" id="Path" fill="#8AE6B9"></path>
            <path d="M26.9682114,72.4853282 C26.7451404,72.3709313 26.4752964,72.4610076 26.3637608,72.6834962 C26.2846066,72.8375267 24.4235823,76.4063511 21.4175199,75.2713893 C21.777312,72.8834656 21.9383189,70.6468702 21.7665182,68.6246565 C21.7701161,68.611145 21.7782114,68.6012366 21.7809099,68.5868244 C21.8006984,68.4877405 21.7791109,68.3931603 21.7386343,68.3084885 C21.7008562,67.949084 21.6558821,67.595084 21.595617,67.2509924 C20.6673536,61.9752214 21.2915927,55.1429313 21.6639775,51.059771 C21.8816516,48.6736489 21.9814939,47.504458 21.8537678,47.0045344 C21.7926031,46.762229 21.5443466,46.6154046 21.3077834,46.6793588 C21.0667227,46.7397099 20.9210069,46.9856183 20.9830711,47.2261221 C21.076617,47.5981374 20.9344991,49.1636641 20.7680953,50.9778015 C20.3912132,55.1041985 19.7597782,62.0121527 20.7105286,67.4068244 C20.737513,67.5590534 20.7555026,67.7175878 20.7770901,67.8734198 C19.4305685,67.4419542 16.3651404,66.1358473 15.3379341,62.962458 C15.2614783,62.726458 15.0105234,62.5976489 14.7712617,62.673313 C14.5346984,62.7498779 14.4060728,63.0038931 14.4825286,63.2407939 C15.7552929,67.1753282 19.6626343,68.5183664 20.8823293,68.8489466 C21.211539,73.1699084 19.9567643,78.606916 18.6300312,84.3330687 C17.5740416,88.8909313 16.4820728,93.6037252 16.1258787,98.0607023 C15.9495806,100.271176 16.0728094,102.532092 16.3759341,104.753374 C14.1910971,103.690473 7.93341421,100.242351 7.77060832,95.5592824 C7.762513,95.3115725 7.54483882,95.1224122 7.30557712,95.1251145 C7.05732062,95.1341221 6.86303293,95.3421985 6.87202773,95.5917099 C7.07261179,101.343084 15.0339099,105.156916 16.5396395,105.827084 C17.2898059,110.438992 18.7460641,114.811298 19.8452288,118.099985 C20.5980936,120.354595 21.2493172,122.301145 21.1305858,122.863221 C21.0793154,123.106427 21.2349255,123.34513 21.4777851,123.396473 C21.5092669,123.403679 21.5398492,123.406382 21.571331,123.406382 C21.7791109,123.406382 21.9662028,123.261359 22.0111768,123.048779 C22.1721837,122.281328 21.6981577,120.809481 20.6988354,117.814443 C19.043792,112.862947 16.5666239,105.427145 17.0028718,98.53 C18.4465373,98.4336183 23.128331,97.7832672 24.4055927,93.4244733 C24.4757522,93.185771 24.3390312,92.9353588 24.100669,92.866 C23.8632062,92.7957405 23.6122513,92.9326565 23.5420919,93.1713588 C22.4393293,96.9320458 18.4726222,97.5337557 17.0739307,97.6283359 C17.464305,93.3839389 18.4987071,88.8909313 19.5070243,84.537542 C20.1780364,81.6424885 20.8301594,78.8203969 21.2745026,76.163145 C21.7233432,76.3126718 22.159591,76.4009466 22.5715529,76.4009466 C24.8391421,76.4009466 26.512175,74.3859389 27.1660971,73.0897405 C27.2776326,72.8681527 27.1894835,72.5970229 26.9682114,72.4853282 Z" id="Path" fill="#45D48F"></path>
        </g>
        <g id="paperplane_4_" transform="translate(388.199307, 42.015267)" fill-rule="nonzero">
            <path d="M29.4876551,61.7752519 C28.2517695,61.7752519 26.9844021,61.748229 25.7206326,61.6941832 C25.4723761,61.683374 25.2798873,61.4734962 25.2897816,61.2248855 C25.2996759,60.9762748 25.5308423,60.7763053 25.7584107,60.7934198 C27.010487,60.8465649 28.2652617,60.8735878 29.4876551,60.8735878 L30.2315251,60.8699847 C30.2324246,60.8699847 30.2342236,60.8699847 30.2351231,60.8699847 C30.4815806,60.8699847 30.6830641,61.0690534 30.6848752,61.3167634 C30.686662,61.565374 30.4878769,61.7689466 30.238721,61.7707481 L29.4876551,61.7752519 Z M34.7271265,61.6077099 C34.4914627,61.6077099 34.2944766,61.424855 34.278286,61.1861527 C34.2620953,60.937542 34.4500867,60.7231603 34.6983432,60.7078473 C36.1941785,60.6114656 37.6900139,60.469145 39.1453726,60.2862901 C39.3945286,60.2574656 39.6167002,60.4304122 39.648182,60.6772214 C39.6796638,60.9240305 39.5042652,61.1492214 39.2578076,61.1807481 C37.7844593,61.3663053 36.2697348,61.5104275 34.7559099,61.6077099 C34.7460156,61.6077099 34.7370208,61.6077099 34.7271265,61.6077099 Z M21.2529151,61.3960305 C21.2394229,61.3960305 21.2259307,61.3960305 21.2124385,61.394229 C19.7354922,61.260916 18.2261646,61.0915725 16.7249324,60.8898015 C16.4784749,60.8564733 16.3057747,60.6294809 16.3390555,60.3835725 C16.3723362,60.1376641 16.5981057,59.962916 16.8445633,59.997145 C18.3332028,60.1971145 19.8299376,60.3655573 21.2933917,60.4970687 C21.5407487,60.5195878 21.7233432,60.7384733 21.7008562,60.9861832 C21.6792686,61.2194809 21.483182,61.3960305 21.2529151,61.3960305 Z M43.6400745,60.4754504 C43.4286967,60.4754504 43.2407054,60.3259237 43.1993293,60.1106412 C43.1516568,59.8665344 43.3117643,59.6305344 43.5555234,59.5827939 C45.0324697,59.2954504 46.4950243,58.9567634 47.9027106,58.5757405 C48.1410728,58.5117863 48.3902288,58.6523053 48.4540919,58.8937099 C48.5188544,59.1342137 48.3767366,59.3810229 48.1365754,59.4458779 C46.708201,59.8323053 45.2240589,60.1763969 43.7264246,60.4673435 C43.6976412,60.4727481 43.6688579,60.4754504 43.6400745,60.4754504 Z M12.3399671,60.2043206 C12.3138821,60.2043206 12.2877972,60.2025191 12.2617123,60.1980153 C10.8054541,59.9421985 9.3150156,59.6521527 7.83177296,59.3341832 C7.58891334,59.2819389 7.43420277,59.0432366 7.48637262,58.8000305 C7.53854246,58.5568244 7.77780416,58.3991908 8.0197643,58.4541374 C9.49311265,58.7694046 10.9727574,59.0576489 12.4173224,59.3107634 C12.6619809,59.354 12.8256863,59.5872977 12.7825113,59.8323053 C12.7438336,60.0502901 12.5549428,60.2043206 12.3399671,60.2043206 Z M3.54575043,58.3253282 C3.50887175,58.3253282 3.47289255,58.3208244 3.43601386,58.3118168 C2.67235529,58.120855 1.90240035,57.9208855 1.12614905,57.7119084 C0.885987868,57.6470534 0.743870017,57.4002443 0.807733102,57.1606412 C0.872495667,56.9201374 1.11985269,56.7787176 1.3582149,56.841771 C2.1299688,57.0489466 2.89452686,57.2480153 3.65368804,57.4380763 C3.8947487,57.4984275 4.04136395,57.7425344 3.98019931,57.9839389 C3.9307279,58.189313 3.74723397,58.3253282 3.54575043,58.3253282 Z M52.3092634,58.1181527 C52.1239705,58.1181527 51.9512704,58.0037557 51.8856083,57.8190992 C51.8019567,57.5849008 51.9233865,57.3272824 52.1581508,57.2435115 C53.571234,56.7381832 54.9600312,56.1734046 56.2867643,55.5653893 C56.5116343,55.46 56.7787799,55.5617863 56.8831196,55.7878779 C56.9865598,56.0139695 56.887617,56.2805954 56.660948,56.385084 C55.3117279,57.0048092 53.8977452,57.5785954 52.4603761,58.0920305 C52.4100052,58.1100458 52.3587348,58.1181527 52.3092634,58.1181527 Z M60.4684471,54.3619695 C60.3128371,54.3619695 60.1617244,54.2818015 60.0789723,54.1367786 C59.9539445,53.9214962 60.0277019,53.6458626 60.2426776,53.5215573 C61.5424263,52.7685191 62.797201,51.9524275 63.971922,51.0958015 C64.1734055,50.9498779 64.4540433,50.9940153 64.6006586,51.1948855 C64.7472738,51.3957557 64.7022998,51.6776947 64.5017158,51.8245191 C63.3018094,52.6991603 62.0209497,53.5323664 60.6933172,54.3016183 C60.6222582,54.3430534 60.5449029,54.3619695 60.4684471,54.3619695 Z M67.7110607,49.0564733 C67.5905303,49.0564733 67.4691005,49.0078321 67.3809515,48.9123511 C67.2919029,48.8159695 67.2523258,48.6907634 67.2622201,48.5700611 C66.7567123,48.513313 66.2628977,48.4421527 65.7816759,48.3565802 C65.5370173,48.3133435 65.373312,48.0800458 65.4173865,47.8350382 C65.459662,47.5900305 65.6944263,47.4251908 65.9381854,47.470229 C66.5939064,47.5855267 67.2739133,47.6747023 67.9746083,47.736855 C68.867792,46.8712214 69.6989116,45.9713588 70.4553744,45.0534809 C70.6136828,44.8625191 70.8961196,44.8345954 71.0886083,44.9931298 C71.2801976,45.1516641 71.307182,45.4354046 71.1488735,45.6272672 C70.5354281,46.3712977 69.8743102,47.1036183 69.1718163,47.8170229 C69.5549948,47.8341374 69.9426707,47.843145 70.334844,47.8449466 C70.5831005,47.8458473 70.7836846,48.0485191 70.7827851,48.2971298 C70.7818856,48.5448397 70.5804021,48.7457099 70.3330451,48.7457099 C70.3321456,48.7457099 70.3321456,48.7457099 70.3312461,48.7457099 C69.6422444,48.7430076 68.9649359,48.7159847 68.3047175,48.6673435 C68.2093726,48.7583206 68.1131282,48.8474962 68.0168839,48.9366718 C67.9296343,49.0168397 67.8198977,49.0564733 67.7110607,49.0564733 Z M74.8187522,48.4691756 C74.5938821,48.4691756 74.4004939,48.3016336 74.3726101,48.0728397 C74.3429272,47.8260305 74.5183258,47.6017405 74.7656828,47.5711145 C76.1688718,47.4008702 77.6449185,47.1450534 79.1524471,46.8126718 C79.3962062,46.7577252 79.6354679,46.9117557 79.6885373,47.1549618 C79.7416066,47.3981679 79.588695,47.6386718 79.3467348,47.6918168 C77.8104229,48.0305038 76.3064922,48.2917252 74.8736205,48.4655725 C74.8556308,48.4682748 74.8367418,48.4691756 74.8187522,48.4691756 Z M61.5559185,47.1027176 C61.4965529,47.1027176 61.4353882,47.0910076 61.3778215,47.0657863 C59.8972773,46.4262443 58.579539,45.6047481 57.4587868,44.6247176 C57.271695,44.4607786 57.2528059,44.1761374 57.4165113,43.9887786 C57.5793172,43.8005191 57.8644523,43.7825038 58.0515442,43.9464427 C59.1012374,44.8652214 60.340721,45.6362748 61.7349151,46.2388855 C61.9624835,46.3370687 62.0677227,46.6027939 61.9696794,46.830687 C61.8950225,47.0009313 61.7295182,47.1027176 61.5559185,47.1027176 Z M83.5985771,46.5631603 C83.4042894,46.5631603 83.2252929,46.4361527 83.1677262,46.240687 C83.0975667,46.0019847 83.2333882,45.7515725 83.470851,45.6804122 C84.9217123,45.2498473 86.356383,44.8165802 87.7739636,44.3806107 C88.0114263,44.3058473 88.2632808,44.4409618 88.3361386,44.6787634 C88.4089965,44.9165649 88.2758735,45.1687786 88.0384107,45.2417405 C86.6181317,45.6786107 85.1798631,46.1136794 83.7272028,46.5442443 C83.6840277,46.5577557 83.6408527,46.5631603 83.5985771,46.5631603 Z M92.200305,43.9176183 C92.0096153,43.9176183 91.8324177,43.7951145 91.771253,43.6032519 C91.6965962,43.3663511 91.8270208,43.1132366 92.0635841,43.0375725 C93.5144454,42.5754809 94.9410208,42.1142901 96.3415113,41.654 C96.578974,41.5774351 96.8308284,41.7044427 96.9090832,41.9413435 C96.9864385,42.1773435 96.8578128,42.4322595 96.622149,42.5097252 C95.2189601,42.970916 93.7896863,43.4330076 92.3361265,43.896 C92.2911525,43.911313 92.245279,43.9176183 92.200305,43.9176183 Z M73.3849809,42.1097863 C73.3076256,42.1097863 73.2293709,42.0899695 73.158312,42.0476336 C72.9442357,41.9215267 72.8722773,41.6458931 72.9982045,41.4315115 C73.7753553,40.1037863 74.398695,38.7589466 74.848435,37.4357252 C74.9284887,37.200626 75.1848406,37.0727176 75.4187054,37.154687 C75.6543692,37.234855 75.7793969,37.4906718 75.6993432,37.725771 C75.2298146,39.1066412 74.5812894,40.5064275 73.7735563,41.8872977 C73.6899047,42.0305191 73.538792,42.1097863 73.3849809,42.1097863 Z M54.9807192,41.2270382 C54.8179133,41.2270382 54.6623033,41.1387634 54.5813501,40.9847328 C53.8563692,39.5939542 53.4165234,38.0932824 53.2708076,36.5250534 C53.2483206,36.2773435 53.4300156,36.058458 53.6773726,36.0350382 C53.9274281,36.0125191 54.1433033,36.1944733 54.1666898,36.4421832 C54.3007123,37.8924122 54.7090763,39.2813893 55.3791889,40.5685802 C55.4934229,40.7892672 55.4088718,41.0612977 55.1884991,41.1756947 C55.1210381,41.2108244 55.0499792,41.2270382 54.9807192,41.2270382 Z M100.751662,41.1081374 C100.56457,41.1081374 100.389172,40.9901374 100.325308,40.8018779 C100.246154,40.5658779 100.372081,40.3109618 100.606846,40.2307939 C102.061305,39.7389771 103.480685,39.2507634 104.859588,38.7706565 C105.092553,38.688687 105.350704,38.8129924 105.431657,39.0480916 C105.51351,39.2831908 105.389381,39.5390076 105.154617,39.6209771 C103.773915,40.1019847 102.351837,40.5910992 100.894679,41.0838168 C100.847906,41.1009313 100.799334,41.1081374 100.751662,41.1081374 Z M109.251749,38.1491298 C109.066456,38.1491298 108.893756,38.0347328 108.828094,37.8500763 C108.744442,37.6158779 108.865872,37.3582595 109.100636,37.2744885 C110.570386,36.7493435 111.981671,36.2368092 113.328192,35.7413893 C113.562957,35.654916 113.819308,35.7756183 113.905659,36.008916 C113.991109,36.2422137 113.871478,36.5016336 113.638513,36.5872061 C112.289293,37.082626 110.87531,37.5960611 109.403761,38.1230076 C109.35339,38.1410229 109.30212,38.1491298 109.251749,38.1491298 Z M117.700565,35.0450992 C117.51887,35.0450992 117.347069,34.9334046 117.279608,34.7532519 C117.191459,34.520855 117.309291,34.2605344 117.542256,34.1731603 C119.061478,33.599374 120.466466,33.0616183 121.742828,32.5670992 C121.974894,32.4770229 122.234844,32.5923206 122.324792,32.8247176 C122.41474,33.0571145 122.299607,33.3174351 122.067541,33.4075115 C120.78848,33.9029313 119.380794,34.4415878 117.858873,35.0162748 C117.806704,35.0360916 117.753634,35.0450992 117.700565,35.0450992 Z M76.1481837,33.6309008 C76.1409879,33.6309008 76.1346915,33.6309008 76.1274957,33.6309008 C75.8792392,33.6191908 75.6876499,33.409313 75.6984437,33.1607023 C75.706539,32.9724427 75.7110364,32.7868855 75.7110364,32.602229 C75.7110364,31.2591908 75.4843674,30.0278473 75.0364263,28.9415267 C74.9419809,28.7118321 75.050818,28.4479084 75.2801854,28.3533282 C75.5086534,28.2596489 75.7731005,28.3677405 75.8675459,28.5974351 C76.3613605,29.7936489 76.6114159,31.1411908 76.6114159,32.602229 C76.6114159,32.7994962 76.6069185,32.9994656 76.5979237,33.2012366 C76.5862305,33.4417405 76.3865459,33.6309008 76.1481837,33.6309008 Z M54.1612929,32.4797252 C54.1190173,32.4797252 54.0749428,32.4734198 54.0317678,32.4608092 C53.794305,32.3896489 53.6584835,32.1383359 53.7304419,31.8996336 C54.1837799,30.3809466 54.9141577,28.9982748 55.8990884,27.7885496 C56.0555979,27.5957863 56.3389341,27.5660611 56.5323224,27.7245954 C56.7248111,27.8813282 56.7535945,28.1650687 56.5970849,28.3578321 C55.6868111,29.4756794 55.012201,30.7538626 54.5921438,32.1581527 C54.5336776,32.3536183 54.3555806,32.4797252 54.1612929,32.4797252 Z M126.096312,31.7897405 C125.918215,31.7897405 125.749113,31.6825496 125.678953,31.506 C125.586307,31.2754046 125.698742,31.0132824 125.929908,30.9214046 C128.603163,29.8530992 130.092702,29.2234656 130.0954,29.2225649 C130.323868,29.1252824 130.587416,29.2324733 130.68456,29.4621679 C130.780804,29.6909618 130.673766,29.9557863 130.445298,30.0521679 C130.445298,30.0521679 128.948563,30.6845038 126.262716,31.7582137 C126.207847,31.7798321 126.15208,31.7897405 126.096312,31.7897405 Z M72.6608995,25.7744427 C72.5745494,25.7744427 72.4872998,25.7492214 72.4099445,25.6978779 C71.3080815,24.9538473 69.9615598,24.4764427 68.4081577,24.2782748 C68.1617002,24.2467481 67.9881005,24.0206565 68.0186828,23.7738473 C68.0501646,23.5279389 68.2786326,23.3612977 68.5223917,23.3838168 C70.2170121,23.6 71.6939584,24.1278473 72.9127539,24.9502443 C73.1187348,25.0889618 73.1727036,25.3690992 73.0341837,25.575374 C72.9478336,25.705084 72.8057158,25.7744427 72.6608995,25.7744427 Z M59.7083865,25.6969771 C59.5464801,25.6969771 59.3899705,25.6096031 59.3099168,25.4555725 C59.1947834,25.2348855 59.2793345,24.962855 59.4988076,24.8475573 C60.5583951,24.2908855 61.717825,23.889145 62.9456153,23.6522443 C63.2757244,23.5891908 63.6004367,23.5333435 63.9179532,23.4865038 C64.1617123,23.451374 64.3919792,23.6198168 64.4288579,23.8657252 C64.4657366,24.1116336 64.2957348,24.3404275 64.0501768,24.3773588 C63.7443536,24.4223969 63.4331334,24.475542 63.115617,24.5367939 C61.9741768,24.7565802 60.8983986,25.1294962 59.9170659,25.6447328 C59.8505043,25.6807634 59.7785459,25.6969771 59.7083865,25.6969771 Z" id="Shape" fill="#DAE7FF"></path>
            <g id="Group" transform="translate(114.233969, 0.000000)">
                <polygon id="Path" fill="#FFE994" points="0.538788562 11.9017863 13.8223102 18.5530229 53.6728752 0.816091603"></polygon>
                <polygon id="Path" fill="#FFE270" points="16.0359307 29.6378168 13.8223102 18.5530229 53.6728752 0.816091603"></polygon>
                <polygon id="Path" fill="#FFD94A" points="16.0359307 29.6378168 20.4640711 20.7698015 31.5339723 18.5530229"></polygon>
                <polygon id="Path" fill="#FFE994" points="20.4640711 20.7698015 31.5339723 25.2033588 53.6728752 0.816091603"></polygon>
            </g>
        </g>
        <g id="woman_on_ladder" transform="translate(328.833622, 67.236641)" fill-rule="nonzero">
            <path d="M50.6002513,22.5884427 C50.6002513,22.5884427 48.5620295,17.6783817 48.0376326,16.7163664 C47.5132357,15.7543511 49.7367504,8.11677863 48.6546759,7.95914504 C47.5726014,7.80151145 46.6452374,12.6305038 46.6452374,12.6305038 C46.6452374,12.6305038 44.0988094,4.66505344 43.056312,4.33087023 C42.0138146,3.99668702 38.8620364,9.44900763 39.264104,12.1567023 C39.6661716,14.8643969 42.9186915,19.298855 43.933305,20.5608244 C44.9479185,21.8227939 46.6308458,26.4482137 46.6308458,26.4482137 L50.6002513,22.5884427 Z" id="Path" fill="#F1B282"></path>
            <path d="M49.1799723,18.5169924 C49.1799723,18.5169924 62.1468769,48.1998473 72.1347036,56.9057252 L59.8262184,59.0891756 C59.8262184,59.0891756 48.5647279,37.9752824 43.8397591,21.2336947 L49.1799723,18.5169924 Z" id="Path" fill="#1277D7"></path>
            <path d="M41.0117938,1.31601527 C27.2245633,-4.26151145 8.68807799,14.4176183 0.408363951,26.953542 C11.0240277,33.9849008 26.4770953,44.2211756 37.0900607,51.2507328 C50.3969688,31.1033588 54.1190173,6.61880916 41.0117938,1.31601527 Z" id="Path" fill="#355AA2"></path>
            <path d="M66.385227,178.844763 C66.385227,178.844763 61.0063362,179.748229 58.8808648,181.360595 C57.8545581,182.138855 58.6595927,184.478137 66.227818,184.123237 C73.7969428,183.768336 74.3690121,182.684718 73.4929185,179.652748 C72.6177244,176.620779 67.447513,178.941145 66.385227,178.844763 Z" id="Path" fill="#102B5E"></path>
            <g id="Group" transform="translate(14.391681, 187.358779)" fill="#C3D3F3">
                <path d="M1.61726516,121.924626 L1.61726516,121.924626 C2.78389081,122.337176 4.06295147,121.724656 4.47491334,120.557267 L45.9337487,3.0508855 C46.3457106,1.88259542 45.7340641,0.601709924 44.568338,0.189160305 L44.568338,0.189160305 C43.4017123,-0.223389313 42.1226516,0.389129771 41.7106898,1.55651908 L0.251854419,119.062901 C-0.160107452,120.231191 0.451538995,121.512076 1.61726516,121.924626 Z" id="Path"></path>
                <path d="M32.3210173,121.924626 L32.3210173,121.924626 C33.487643,122.337176 34.7667036,121.724656 35.1786655,120.557267 L76.6366014,3.0508855 C77.0485633,1.88259542 76.4369168,0.601709924 75.2711906,0.189160305 L75.2711906,0.189160305 C74.104565,-0.223389313 72.8255043,0.389129771 72.4135425,1.55651908 L30.9556066,119.062901 C30.5436447,120.231191 31.1543917,121.512076 32.3210173,121.924626 Z" id="Path"></path>
                <polygon id="Rectangle" transform="translate(55.004286, 13.736641) rotate(-180.000000) translate(-55.004286, -13.736641) " points="38.7012094 11.7099236 71.3073619 11.7099236 71.3073619 15.7633588 38.7012094 15.7633588"></polygon>
                <polygon id="Rectangle" transform="translate(46.459225, 38.282443) rotate(-180.000000) translate(-46.459225, -38.282443) " points="30.1561487 36.2557252 62.7623012 36.2557252 62.7623012 40.3091603 30.1561487 40.3091603"></polygon>
                <polygon id="Rectangle" transform="translate(37.914164, 62.828244) rotate(-180.000000) translate(-37.914164, -62.828244) " points="21.6110881 60.8015267 54.2172406 60.8015267 54.2172406 64.8549618 21.6110881 64.8549618"></polygon>
                <polygon id="Rectangle" transform="translate(29.369104, 87.374046) rotate(-180.000000) translate(-29.369104, -87.374046) " points="13.0660274 85.3473282 45.6721799 85.3473282 45.6721799 89.4007633 13.0660274 89.4007633"></polygon>
                <polygon id="Rectangle" transform="translate(20.824043, 111.919847) rotate(-180.000000) translate(-20.824043, -111.919847) " points="4.52096674 109.89313 37.1271193 109.89313 37.1271193 113.946565 4.52096674 113.946565"></polygon>
            </g>
            <g id="Group" transform="translate(73.757366, 187.358779)" fill="#DAE7FF">
                <path d="M75.7524125,121.924626 L75.7524125,121.924626 C74.5857868,122.337176 73.3067262,121.724656 72.8947643,120.557267 L31.4368284,3.0508855 C31.0248666,1.88259542 31.636513,0.601709924 32.8022392,0.189160305 L32.8022392,0.189160305 C33.9688648,-0.223389313 35.2479255,0.389129771 35.6598873,1.55651908 L77.1187227,119.062901 C77.5297851,120.231191 76.9190381,121.512076 75.7524125,121.924626 Z" id="Path"></path>
                <path d="M45.0486603,121.924626 L45.0486603,121.924626 C43.8820347,122.337176 42.602974,121.724656 42.1910121,120.557267 L0.732176776,3.0508855 C0.320214905,1.88259542 0.931861352,0.601709924 2.09758752,0.189160305 L2.09758752,0.189160305 C3.26421317,-0.223389313 4.54327383,0.389129771 4.9552357,1.55651908 L46.4140711,119.062901 C46.8269324,120.231191 46.215286,121.512076 45.0486603,121.924626 Z" id="Path"></path>
                <rect id="Rectangle" x="6.06249567" y="11.7099237" width="32.6061525" height="4.05343511"></rect>
                <rect id="Rectangle" x="14.6075563" y="36.2557252" width="32.6061525" height="4.05343511"></rect>
                <rect id="Rectangle" x="23.152617" y="60.8015267" width="32.6061525" height="4.05343511"></rect>
                <rect id="Rectangle" x="31.6976776" y="85.3473282" width="32.6061525" height="4.05343511"></rect>
                <rect id="Rectangle" x="40.2427383" y="109.89313" width="32.6061525" height="4.05343511"></rect>
            </g>
            <path d="M111.916009,190.798794 L55.0706672,190.798794 C53.0090589,190.798794 51.3369255,189.125176 51.3369255,187.059725 L51.3369255,187.059725 C51.3369255,184.995176 53.0081594,183.320656 55.0706672,183.320656 L111.916009,183.320656 C113.977617,183.320656 115.64975,184.994275 115.64975,187.059725 L115.64975,187.059725 C115.64975,189.125176 113.978516,190.798794 111.916009,190.798794 Z" id="Path" fill="#AEC1E8"></path>
            <g id="Group" transform="translate(63.863085, 20.717557)">
                <path d="M7.20033795,5.15687023 C3.26511265,5.24244275 3.80390121,11.1541527 2.97098267,12.017084 C1.48504159,13.5564885 0.51540208,15.2463206 0.377781629,16.2731908 C0.168202773,17.8414198 2.15965165,16.2731908 1.32493414,20.8850992 C0.490216638,25.4970076 6.46096534,24.8160305 6.68133795,26.702229 C6.90171057,28.5884275 4.41644714,37.3816794 4.41644714,37.3816794 L15.5430156,37.1573893 C15.5430156,37.1573893 14.7082981,29.6576336 15.300156,21.122 C15.8920139,12.5863664 20.8130693,4.86141985 7.20033795,5.15687023 Z" id="Path" fill="#F1B282"></path>
                <path d="M28.1564246,0.501725191 C28.1564246,0.501725191 25.7539133,6.23598473 25.5911075,8.66984733 C25.4283016,11.1037099 20.3723241,7.96905344 20.3723241,7.96905344 C20.3723241,7.96905344 21.4651924,0.421557252 28.1564246,0.501725191 Z" id="Path" fill="#03193F"></path>
                <path d="M15.3892045,26.8634656 C14.3494055,27.7678321 14.215383,22.2038168 12.6952617,21.3444885 C11.1751404,20.4851603 8.99210225,19.7005954 9.19088735,18.8277557 C9.38967244,17.954916 11.5151438,17.3387939 11.8272634,16.2353588 C12.1384835,15.1310229 3.99728943,13.0556641 5.07396707,6.24229008 C6.15064471,-0.571083969 24.2014107,0.135114504 23.6365373,10.4551603 C23.0707643,20.7743053 18.8126256,23.885542 15.3892045,26.8634656 Z" id="Path" fill="#0B224E"></path>
                <path d="M36.7662478,13.1187176 C35.7759203,21.9912366 21.7827088,24.7349618 22.5508648,12.0684275 C23.3181213,-0.59810687 37.9895407,2.15012214 36.7662478,13.1187176 Z" id="Path" fill="#0B224E"></path>
            </g>
            <path d="M35.1543795,34.7955878 C35.1543795,34.7955878 32.24726,30.4277863 31.5195806,29.6089924 C30.7919012,28.7901985 30.3385633,21.0562443 29.2483934,21.1472214 C28.1582236,21.2381985 28.3399185,26.1518626 28.3399185,26.1518626 C28.3399185,26.1518626 24.0691872,18.963771 22.9790173,18.8727939 C21.8888475,18.7818168 19.5259133,25.8789313 20.5261352,28.4262901 C21.526357,30.9736489 26.0768267,33.4219237 27.3486915,34.4235725 C28.6205563,35.4243206 31.8011179,39.2462595 31.8011179,39.2462595 L35.1543795,34.7955878 Z" id="Path" fill="#F1B282"></path>
            <polygon id="Path" fill="#F1B282" points="125.759906 154.344901 129.929896 158.348794 126.105307 163.282275 121.005255 158.719908"></polygon>
            <path d="M126.338272,154.536763 C123.479724,151.707466 108.518672,137.011511 99.1164073,129.97655 C94.3365702,117.727069 84.1274714,94.030687 84.1274714,94.030687 C63.4115459,86.2057557 69.0449896,106.769282 69.9534645,109.498595 C70.8619393,112.227908 87.3467106,137.732122 89.3183709,139.706595 C92.6248596,143.017802 117.818397,157.734473 121.867856,160.09087 C122.184473,160.274626 122.585641,160.202565 122.816808,159.918824 L126.391341,155.536611 C126.635101,155.24026 126.610815,154.806992 126.338272,154.536763 Z" id="Path" fill="#0B224E"></path>
            <rect id="Rectangle" fill="#F1B282" x="71.6040104" y="168.959786" width="6.69393068" height="7.3700458"></rect>
            <path d="M87.3988804,92.2102443 C80.6752669,86.5687634 69.7717695,91.6643817 67.4097348,97.2229924 C65.0477002,102.781603 66.8979307,128.787542 66.7162357,132.495985 C66.5345407,136.203527 71.2595095,173.042947 71.2595095,173.042947 L78.6424419,173.042947 C78.6424419,173.042947 80.9559047,151.293115 80.0735147,135.897267 C83.0813761,129.119924 88.273175,116.792977 89.0557227,110.773176 C90.1674801,102.218626 87.3988804,92.2102443 87.3988804,92.2102443 Z" id="Path" fill="#102B5E"></path>
            <path d="M83.5823865,77.1062443 C83.5823865,72.905084 84.1787418,55.4203664 79.9475875,51.6290534 C76.4944835,48.5358321 65.9552756,53.994458 59.9584419,52.5388244 C53.9616083,51.0831908 34.1370676,32.5211603 34.1370676,32.5211603 L29.2241075,37.0628092 C38.6641508,49.5320763 53.1763622,59.6179237 61.3364454,64.7099389 C59.6544177,66.7582748 57.8707487,69.4047176 58.013766,71.302626 C58.2809116,74.8327176 64.4171646,76.6639695 64.5475893,81.5019695 C64.6780139,86.3399695 61.2159151,97.9661221 64.5008163,100.987282 C67.7857175,104.008443 87.3709965,104.841649 91.3691854,101.565573 C95.3682738,98.2903969 83.5823865,86.3732977 83.5823865,77.1062443 Z" id="Path" fill="#1B90FB"></path>
            <path d="M80.7031508,84.9960305 C82.3797816,90.0799389 87.7622704,94.0261832 91.2639463,96.1447786 C89.0386326,90.9428702 83.5859844,83.4115878 83.5859844,77.103542 C83.5859844,75.7857252 83.6408527,73.1572977 83.5940797,70.0586718 C82.2772409,72.0898931 78.595669,78.5780916 80.7031508,84.9960305 Z" id="Path" fill="#1277D7"></path>
            <path d="M78.458948,175.518244 C79.1299601,175.458794 79.8054697,176.547817 79.6885373,179.18255 C79.5716049,181.817282 80.0024558,183.227878 77.9255563,183.426947 C76.6860728,183.545847 64.8741005,183.32426 61.0423154,183.226076 C60.790461,183.219771 60.5547972,183.086458 60.3973882,182.860366 C60.2399792,182.635176 60.1743172,182.337924 60.2192912,182.047878 C60.4189757,180.766992 61.3220537,178.831252 64.8983865,178.452031 C67.5248683,177.953008 70.0865875,175.321878 71.2478163,175.290351 C72.4090451,175.257924 72.9001612,176.454137 74.7944662,176.330733 C76.6887712,176.206427 77.2986187,175.620931 78.458948,175.518244 Z" id="Path" fill="#0B224E"></path>
            <path d="M128.03649,156.832809 C128.432262,156.286046 129.696031,156.490519 131.604728,158.307359 C133.513425,160.124198 134.859047,160.724107 133.646548,162.424748 C132.922466,163.439908 125.007042,172.22145 122.418338,175.05345 C122.248336,175.239908 121.992884,175.329985 121.719442,175.30116 C121.446,175.272336 121.179754,175.127313 120.990863,174.903023 C120.156146,173.912183 119.289946,171.959328 121.350655,169.007527 C122.698076,166.694366 122.395851,163.032763 123.133425,162.134702 C123.870998,161.23574 125.094291,161.649191 126.243827,160.136809 C127.394262,158.622626 127.352886,157.77771 128.03649,156.832809 Z" id="Path" fill="#0B224E"></path>
        </g>
        <g id="man_with_paper_1_" transform="translate(475.448873, 200.549618)">
            <path d="M53.5658371,4.68036641 C50.344799,4.29754198 47.5042409,6.3819084 47.5366222,8.88603053 C47.543818,9.43189313 47.7695875,10.4128244 47.3693189,11.663084 C47.1021733,12.4998931 45.9481404,13.5916183 45.9724263,14.7265802 C45.9967123,15.861542 47.6895338,15.5850076 47.5672045,16.6010687 C47.4448752,17.6171298 46.7954506,19.7240153 47.2793709,20.5301985 C47.7623917,21.3363817 53.0216516,20.3221221 53.1808596,22.214626 C53.3400676,24.1080305 53.7970035,30.2467328 53.7970035,30.2467328 L64.2723484,29.3000305 C64.2723484,29.3000305 65.2374905,9.23372519 64.2723484,7.91230534 C62.6550832,5.7009313 56.1374506,4.98572519 53.5658371,4.68036641 Z" id="Path" fill="#F1B282" fill-rule="nonzero"></path>
            <path d="M72.5781473,159.974672 C72.5781473,159.974672 74.4166846,169.063374 72.2741231,170.812656 L67.6480971,171.098198 C67.2262409,171.124321 66.8637504,170.802748 66.8376655,170.38029 L66.793591,169.656977 C66.793591,169.656977 64.8048406,171.493634 63.2784229,171.587313 C61.7520052,171.681893 54.0146776,172.158397 54.0146776,172.158397 C54.0146776,172.158397 52.126669,172.607878 52.014234,170.779328 C51.853227,168.16171 58.1163068,167.362733 60.723,165.063084 C63.3296932,162.763435 64.5772721,160.469191 64.5772721,160.469191 L72.5781473,159.974672 Z" id="Path" fill="#0B224E"></path>
            <path d="M50.1280243,164.401023 C50.1280243,164.401023 51.5438059,173.565389 49.3220901,175.212885 L44.6879688,175.283145 C44.2652132,175.28945 43.9180139,174.951664 43.9117175,174.528305 L43.9009237,173.804092 C43.9009237,173.804092 41.8294211,175.546168 40.2994055,175.569588 C38.7693899,175.593008 28.9812478,175.722718 28.9812478,175.722718 C28.9812478,175.722718 27.0743501,176.083924 27.0472252,174.251771 C27.0077886,171.629649 35.338773,171.109008 38.0489064,168.932763 C40.7590399,166.756519 42.1127574,164.522626 42.1127574,164.522626 L50.1280243,164.401023 Z" id="Path" fill="#0B224E"></path>
            <path d="M58.1208042,77.9628702 C58.1208042,77.9628702 22.6003362,81.1101374 4.44612998,65.3134504 C3.38294454,64.3883664 2.77039861,63.0444275 2.77039861,61.6338321 L2.77039861,20.109542 C2.77039861,19.4799084 3.13288908,18.9079237 3.70136049,18.6394962 C4.26983189,18.3710687 4.94084402,18.457542 5.42566378,18.8583817 C24.8976083,34.9757405 58.1217036,30.6547786 58.1217036,30.6547786 L58.1217036,77.9628702 L58.1208042,77.9628702 Z" id="Path" fill="#224380" fill-rule="nonzero"></path>
            <path d="M16.4218076,47.5900305 C16.4218076,47.5900305 13.853792,47.4396031 10.4321698,45.4092824 C7.01144714,43.3789618 5.47333622,41.3486412 4.52708319,42.2962443 C3.58083016,43.2438473 4.9327487,45.1390534 4.9327487,45.1390534 C-0.77445234,42.7727481 -0.321114385,50.8967328 2.22981109,52.2451756 C3.58172964,52.9594809 5.62264991,52.5163053 7.57542114,52.2451756 C10.7460884,51.8056031 28.0457886,58.0740153 28.0457886,58.0740153 L31.8020173,49.1024122 L16.4218076,47.5900305 Z" id="Path" fill="#F1B282" fill-rule="nonzero"></path>
            <path d="M76.0969133,83.8998015 L71.7803085,119.618672 L74.0757816,160.363802 C74.1000676,160.788962 73.7915459,161.160977 73.3687903,161.215023 L62.1171941,162.656244 C61.4821612,162.737313 60.8948007,162.313053 60.7706724,161.684321 C59.617539,155.856382 54.3762686,128.840687 54.4887036,119.788015 C54.6146308,109.618397 55.351305,82.5963969 60.4099809,80.1138931 C65.4686568,77.6313893 76.0762253,75.5380153 76.0969133,83.8998015 Z" id="Path" fill="#0B224E" fill-rule="nonzero"></path>
            <path d="M70.201721,82.4540763 C68.0762496,93.0101221 56.5377192,122.380412 54.0200745,126.269008 L52.1797383,164.654137 C52.149156,165.293679 51.6292565,165.800809 50.9897262,165.81342 L39.9369151,166.043409 C39.6104038,166.050321 39.2946863,165.925115 39.0608215,165.696321 C38.8269567,165.467527 38.6956326,165.154061 38.6947331,164.827084 L38.6398648,122.487603 C38.6398648,122.487603 44.7617262,82.8468092 49.9085511,79.1482748 C55.0553761,75.4506412 71.2927903,77.0332824 70.201721,82.4540763 Z" id="Path" fill="#102B5E" fill-rule="nonzero"></path>
            <path d="M70.4086014,30.3142901 C62.5300555,24.7863053 61.6827452,43.4798473 63.8783761,47.7954046 C65.0432028,50.085145 68.4522322,52.8712061 71.395331,54.9825954 C66.3474489,58.9072214 55.9854385,67.2419847 55.9854385,67.2419847 L58.3960451,76.616229 C58.3960451,76.616229 84.1445615,64.4316031 84.3469445,58.6378931 C84.550227,52.845084 78.2871473,35.8422748 70.4086014,30.3142901 Z" id="Path" fill="#1EAF69" fill-rule="nonzero"></path>
            <path d="M74.7737782,61.6275267 C74.1657296,47.820626 77.9930173,43.5158779 73.9381612,34.2902595 C72.1697834,30.2539389 67.1254991,26.9319237 65.0818804,27.2003511 C59.7128839,27.9227634 55.8766014,28.0452672 53.8491733,28.6622901 C47.3045563,29.7098779 42.3007487,44.8490076 36.4289428,47.3909618 C34.117279,48.3899084 30.3709445,48.3169466 26.5670433,47.926916 L25.8780416,58.379374 C31.1579896,59.5161374 36.2670364,60.1745954 38.4563709,59.6872824 C42.0246083,58.8991145 46.0956551,56.3895878 49.5019861,53.8557405 C51.0670815,63.1471145 45.3257002,75.9631756 45.9094627,80.9002595 C46.5094159,85.9760611 54.2305529,82.3216641 60.5152201,82.1180916 C66.7998873,81.9145191 71.4636915,86.9912214 76.1274957,84.9609008 C80.7912998,82.9305802 75.3818267,75.4344275 74.7737782,61.6275267 Z" id="Path" fill="#2CCD7F" fill-rule="nonzero"></path>
            <path d="M45.6225286,20.5274962 C45.6216291,25.5726718 53.6521872,25.3447786 55.4511473,23.5144275 C57.7960919,21.1292061 56.0609948,15.3363969 58.3420763,15.1508397 C62.7081525,14.7959389 59.0031941,24.1584733 63.6283206,23.4774962 C68.2534471,22.7965191 74.6694385,1.93303817 59.278435,0.344992366 C41.6387314,-1.47454962 42.0785771,7.62135878 51.9827522,10.1876336 C57.110688,11.5162595 54.110922,17.6144275 51.5698908,16.8875115 C48.6780624,16.0606107 45.6234281,16.7100611 45.6225286,20.5274962 Z" id="Path" fill="#0B224E" fill-rule="nonzero"></path>
            <path d="M25.5461334,47.5395878 C25.9302114,47.0540763 28.5872756,47.0982137 28.7905581,47.9458321 C28.9929411,48.7925496 27.5672652,58.3874809 26.7595321,58.9702748 C25.951799,59.5539695 24.0323085,59.6998931 23.9108787,58.3406412 C23.7885494,56.9822901 25.1566586,48.0314046 25.5461334,47.5395878 Z" id="Path" fill="#1EAF69" fill-rule="nonzero"></path>
            <path d="M48.8300745,65.5341374 C49.6252149,61.5545649 50.1118336,57.4452824 49.5028856,53.8548397 C49.5028856,53.8548397 52.9739792,50.2652977 55.98274,47.2279237 C55.98274,47.2279237 57.4830728,58.1758015 48.8300745,65.5341374 Z" id="Path" fill="#1EAF69" fill-rule="nonzero"></path>
        </g>
        <g id="man_10_" transform="translate(160.630849, 169.022901)" fill-rule="nonzero">
            <path d="M40.7329549,37.8167481 C41.8519081,40.2235878 41.3032253,41.5341985 41.5775667,42.548458 C41.8519081,43.5627176 42.9025009,45.6110534 42.9474749,46.5820763 C42.9915494,47.5530992 41.9616447,47.6855115 41.7394731,48.9555878 C41.5173016,50.2247634 42.1010641,51.8785649 41.3284107,53.2089924 C40.5557574,54.5394198 37.5559913,54.2322595 37.7322894,55.5158473 C37.909487,56.7994351 39.7992946,61.5644733 39.7992946,61.5644733 L27.4647244,61.7626412 C27.4647244,61.7626412 27.95674,54.8267634 27.3298024,51.9596336 C26.7028648,49.0925038 25.3122686,38.5607786 27.8730884,37.2834962 C30.4339081,36.0062137 39.5456412,35.2612824 40.7329549,37.8167481 Z" id="Path" fill="#F1B282"></path>
            <path d="M33.961669,32.3554198 C23.7004003,32.6760916 20.0997816,35.2648855 20.216714,43.2951908 C20.2868735,48.0809466 22.924149,54.7060611 26.3862478,54.6835992 C28.8832045,54.6673282 33.8051594,54.3898931 34.6677608,53.0234351 C36.7149775,49.780687 34.9618908,45.3038931 36.3335979,43.759084 C38.2836707,41.5630229 42.7145095,42.6934809 42.1055615,35.1279695 C41.495714,27.562458 37.3769948,32.2491298 33.961669,32.3554198 Z" id="Path" fill="#0B224E"></path>
            <polygon id="Path" fill="#F1B282" points="45.108026 197.679725 45.108026 202.242992 51.989948 202.242992 51.991747 195.737679"></polygon>
            <polygon id="Path" fill="#F1B282" points="21.3797418 197.870687 21.3797418 203.263557 14.3808873 203.263557 14.3808873 196.643847"></polygon>
            <path d="M17.2889064,114.73113 C17.2889064,114.73113 15.1778267,143.433053 14.7892513,151.718275 C14.4015754,160.003496 14.3799879,196.643847 14.3799879,196.643847 L21.683766,196.708702 C21.683766,196.708702 26.8917556,173.078977 26.6111179,159.52429 C28.2913466,154.087282 37.163818,122.369603 37.2933432,115.896718 C37.4228683,109.423832 20.5207383,111.494687 17.2889064,114.73113 Z" id="Path" fill="#0B224E"></path>
            <path d="M49.8491854,114.73113 C49.8491854,114.73113 52.8759359,143.822183 53.2645113,152.106504 C53.6521872,160.391725 52.1761404,196.643847 52.1761404,196.643847 L44.6196083,197.157282 C44.6196083,197.157282 40.8220035,177.480107 40.4954922,159.330626 C38.8152634,153.893618 28.4442582,121.943542 28.3147331,115.470656 C28.185208,108.998672 46.6173536,111.494687 49.8491854,114.73113 Z" id="Path" fill="#102B5E"></path>
            <path d="M15.3892045,79.9076183 C15.3892045,79.9076183 9.65232062,87.0380611 10.8162478,92.6696336 C11.9792756,98.3012061 19.1706187,109.714779 20.9156101,112.238718 C22.6606014,114.762656 18.0372738,117.482061 18.0372738,117.482061 C18.0372738,117.482061 3.30828769,98.3228244 0.981332756,92.4975878 C-1.34562218,86.6723511 9.08744714,71.4611603 9.08744714,71.4611603 L15.3892045,79.9076183 Z" id="Path" fill="#F1B282"></path>
            <path d="M52.4477834,55.8617405 C52.4477834,55.8617405 58.9051508,55.0582595 62.4356101,44.0680458 C65.9660693,33.0778321 66.9932756,18.320626 65.7079185,15.0634656 C63.6714957,9.90479389 65.8626291,4.83259542 66.4346984,2.71490076 C66.8691473,1.10883969 68.1590017,-1.0989313 68.5187938,0.631435115 C68.734669,1.67001527 68.5691646,4.36329771 68.1634991,6.34767939 C67.8019081,8.11407634 73.3346101,8.28972519 72.5583588,11.008229 C71.7830069,13.7267328 71.0067556,13.5519847 70.87813,15.4832214 C70.7495043,17.414458 71.7830069,39.4219084 70.3609289,44.5994962 C68.938851,49.7779847 63.5095893,63.2407939 59.5024055,65.7007786 C55.4952218,68.1607634 52.4477834,55.8617405 52.4477834,55.8617405 Z" id="Path" fill="#F1B282"></path>
            <path d="M35.8460797,60.0043511 C32.8409168,59.9728244 20.1393588,59.0333282 13.8376014,64.8585649 C7.53584402,70.6838015 5.30603293,75.1497863 4.91835702,76.315374 C4.53068111,77.4809618 12.6745737,83.7917099 14.3224211,82.5288397 C15.9702686,81.2668702 17.1341958,78.9365954 19.0734749,78.9365954 C21.0127539,78.9365954 20.0431144,89.5196641 19.2677626,94.9566718 C18.4924107,100.393679 13.8385009,115.73458 17.1350953,117.190214 C20.4316898,118.645847 28.9632582,116.704702 33.9077002,117.966672 C38.8521421,119.228641 47.0931785,120.199664 49.8078094,117.092931 C52.5224402,113.986198 47.8685303,102.237542 47.7713865,94.6648244 C47.6742426,87.0921069 47.9656742,75.2461679 52.5224402,72.2367176 C57.0792062,69.2272672 62.6056118,68.2562443 62.799,65.440458 C62.9932877,62.6246718 54.8484957,53.6927023 52.9101161,54.6637252 C50.9708371,55.6347481 47.4520711,59.7125038 43.7974835,59.8097863 C40.142896,59.9070687 37.9796464,60.0268702 35.8460797,60.0043511 Z" id="Path" fill="#FFCB01"></path>
            <path d="M53.8689619,196.982534 C53.2825009,198.803878 51.0499913,198.519237 49.6351092,198.815588 C48.220227,199.111939 43.2901768,199.799221 43.1120797,198.451679 C42.9339827,197.104137 43.6283813,196.119603 43.5366343,195.088229 C43.4448873,194.056855 42.3133414,192.744443 43.4574801,191.969786 C44.6016187,191.19513 46.5049185,191.919344 47.8883189,191.957176 C48.8993345,191.985099 52.6303778,190.39345 53.0837158,191.032992 C53.5370537,191.672534 52.9182114,192.897573 53.074721,193.691145 C53.3085858,194.868443 54.3240988,195.569237 53.8689619,196.982534 Z" id="Path" fill="#355AA2"></path>
            <path d="M13.0820381,197.951756 C13.7629445,199.739771 15.9774645,199.338031 17.4058388,199.560519 C18.8342132,199.783008 23.7939463,200.209969 23.9009844,198.855221 C24.0080225,197.500473 23.2641525,196.55287 23.3019307,195.517893 C23.3397088,194.482916 24.4010953,193.112855 23.2173795,192.400351 C22.0336638,191.687847 20.1708406,192.509344 18.7919376,192.620137 C17.7836205,192.701206 13.9743224,191.306824 13.5551646,191.969786 C13.1360069,192.631847 13.8178128,193.823557 13.7026794,194.624336 C13.5317782,195.810641 12.5540433,196.563679 13.0820381,197.951756 Z" id="Path" fill="#355AA2"></path>
            <path d="M44.1500797,201.364748 C45.108026,200.393725 46.7720641,201.947542 48.4666846,201.947542 C50.161305,201.947542 51.1048596,200.782855 51.989948,200.718 C52.8759359,200.653145 53.3283744,202.724 55.2028908,203.674305 C56.3155477,204.238183 58.9519237,204.51742 58.9519237,207.749359 C58.9519237,208.549237 44.6187088,208.346565 44.1500797,208.085344 C43.2577955,207.58542 43.1921334,202.335771 44.1500797,201.364748 Z" id="Path" fill="#102B5E"></path>
            <path d="M13.5128891,201.364748 C14.4708354,200.393725 16.1348735,201.947542 17.8294939,201.947542 C19.5241144,201.947542 20.467669,200.782855 21.3527574,200.718 C22.2387452,200.653145 22.6911837,202.724 24.5657002,203.674305 C25.678357,204.238183 28.3147331,204.51742 28.3147331,207.749359 C28.3147331,208.549237 13.9815182,208.346565 13.5128891,208.085344 C12.6197054,207.58542 12.5549428,202.335771 13.5128891,201.364748 Z" id="Path" fill="#102B5E"></path>
        </g>
    </g>
</svg>