<?xml version="1.0" standalone="no"?><!DOCTYPE svg PUBLIC "-//W3C//DTD SVG 1.1//EN" "http://www.w3.org/Graphics/SVG/1.1/DTD/svg11.dtd"><svg t="1630213283904" class="icon" viewBox="0 0 1024 1024" version="1.1" xmlns="http://www.w3.org/2000/svg" p-id="1504" xmlns:xlink="http://www.w3.org/1999/xlink" width="200" height="200"><defs><style type="text/css"></style></defs><path d="M896 85.333333h-298.666667a42.666667 42.666667 0 0 0-42.666666 42.666667v298.666667a42.666667 42.666667 0 0 0 42.666666 42.666666h298.666667a42.666667 42.666667 0 0 0 42.666667-42.666666V128a42.666667 42.666667 0 0 0-42.666667-42.666667z m-42.666667 85.333334v213.333333h-213.333333V170.666667h213.333333zM426.666667 554.666667H128a42.666667 42.666667 0 0 0-42.666667 42.666666v298.666667a42.666667 42.666667 0 0 0 42.666667 42.666667h298.666667a42.666667 42.666667 0 0 0 42.666666-42.666667v-298.666667a42.666667 42.666667 0 0 0-42.666666-42.666666z m-42.666667 85.333333v213.333333H170.666667v-213.333333h213.333333z" fill="#03CD8E" p-id="1505"></path><path d="M426.666667 85.333333H128a42.666667 42.666667 0 0 0-42.666667 42.666667v298.666667a42.666667 42.666667 0 0 0 42.666667 42.666666h298.666667a42.666667 42.666667 0 0 0 42.666666-42.666666V128a42.666667 42.666667 0 0 0-42.666666-42.666667zM384 170.666667v213.333333H170.666667V170.666667h213.333333zM896 554.666667h-298.666667a42.666667 42.666667 0 0 0-42.666666 42.666666v298.666667a42.666667 42.666667 0 0 0 42.666666 42.666667h298.666667a42.666667 42.666667 0 0 0 42.666667-42.666667v-298.666667a42.666667 42.666667 0 0 0-42.666667-42.666666z m-42.666667 85.333333v213.333333h-213.333333v-213.333333h213.333333z" fill="#049DEE" p-id="1506"></path></svg>