<svg t="1660374932550" class="icon" viewBox="0 0 1024 1024" version="1.1" xmlns="http://www.w3.org/2000/svg" p-id="904" width="200" height="200"><path d="M802.6 65.39c45.22 0 82.01 36.79 82.01 82.01v730.04c0 45.22-36.79 82.01-82.01 82.01H218.57c-45.22 0-82.01-36.79-82.01-82.01V147.4c0-45.22 36.79-82.01 82.01-82.01H802.6m0-64H218.57c-80.64 0-146.01 65.37-146.01 146.01v730.04c0 80.64 65.37 146.01 146.01 146.01H802.6c80.64 0 146.01-65.37 146.01-146.01V147.4c0-80.64-65.37-146.01-146.01-146.01z" fill="#ff5c00" p-id="905"></path><path d="M223.07 191.87h64v64h-64zM223.07 576.1h64v64h-64zM223.07 384h64v64h-64zM223.07 767.83h64v64h-64zM364.57 191.87h438.02v64H364.57zM364.57 576.1h438.02v64H364.57zM364.57 384h438.02v64H364.57zM364.57 767.83h438.02v64H364.57z" fill="#000033" p-id="906"></path></svg>