<?xml version="1.0" standalone="no"?><!DOCTYPE svg PUBLIC "-//W3C//DTD SVG 1.1//EN" "http://www.w3.org/Graphics/SVG/1.1/DTD/svg11.dtd"><svg t="1630213414840" class="icon" viewBox="0 0 1024 1024" version="1.1" xmlns="http://www.w3.org/2000/svg" p-id="1798" xmlns:xlink="http://www.w3.org/1999/xlink" width="200" height="200"><defs><style type="text/css"></style></defs><path d="M548.821333 414.848a42.666667 42.666667 0 0 1 63.872 56.32l-3.541333 4.010667-125.866667 125.866666a42.666667 42.666667 0 0 1-63.872-56.32l3.541334-4.010666 125.866666-125.866667z" fill="#03CD8E" p-id="1799"></path><path d="M818.56 91.946667L144.682667 332.544l3.712-0.896a85.333333 85.333333 0 0 0-67.242667 82.517333l0.213333 6.954667a85.333333 85.333333 0 0 0 58.624 75.008l2.688 0.768L420.266667 602.88l106.752 277.418667-1.152-4.266667a85.333333 85.333333 0 0 0 83.2 66.389333l6.954666-0.298666a85.333333 85.333333 0 0 0 74.410667-59.349334l0.896-3.285333 242.304-677.802667c13.696-28.8 6.954667-67.413333-18.474667-92.842666a85.333333 85.333333 0 0 0-96.597333-16.896z m32.512 78.805333l3.754667-1.578667-244.352 683.008-1.408 4.906667-1.792-5.845333-107.093334-278.186667a84.906667 84.906667 0 0 0-50.901333-50.389333L171.818667 416.682667l-5.333334-1.664 5.333334-1.493334 679.253333-242.773333z" fill="#049DEE" p-id="1800"></path></svg>