<svg height="200" viewBox="0 0 1024 1024" width="200" xmlns="http://www.w3.org/2000/svg"><path d="m548.821333 414.848a42.666667 42.666667 0 0 1 63.872 56.32l-3.541333 4.010667-125.866667 125.866666a42.666667 42.666667 0 0 1 -63.872-56.32l3.541334-4.010666z" fill="#03cd8e"/><path d="m818.56 91.946667-673.877333 240.597333 3.712-.896a85.333333 85.333333 0 0 0 -67.242667 82.517333l.213333 6.954667a85.333333 85.333333 0 0 0 58.624 75.008l2.688.768 277.589334 105.984 106.752 277.418667-1.152-4.266667a85.333333 85.333333 0 0 0 83.2 66.389333l6.954666-.298666a85.333333 85.333333 0 0 0 74.410667-59.349334l.896-3.285333 242.304-677.802667c13.696-28.8 6.954667-67.413333-18.474667-92.842666a85.333333 85.333333 0 0 0 -96.597333-16.896zm32.512 78.805333 3.754667-1.578667-244.352 683.008-1.408 4.906667-1.792-5.845333-107.093334-278.186667a84.906667 84.906667 0 0 0 -50.901333-50.389333l-277.461333-105.984-5.333334-1.664 5.333334-1.493334z" fill="#049dee"/></svg>