<?xml version="1.0" encoding="UTF-8"?>
<svg width="600px" height="400px" viewBox="0 0 600 400" version="1.1" xmlns="http://www.w3.org/2000/svg" xmlns:xlink="http://www.w3.org/1999/xlink">
    <title>插件化</title>
    <g id="插件化" stroke="none" stroke-width="1" fill="none" fill-rule="evenodd">
        <rect fill="transparent" x="0" y="0" width="600" height="400"></rect>
        <path d="M137.476318,343.595988 C61.8603278,343.595988 31,284.80355 31,219.366857 C31,153.930164 61.3421204,113.640875 100.459579,113.640875 C139.577037,113.640875 128.465268,152.772255 174.234853,152.772255 C220.004438,152.772255 244.791124,60.3221884 310.334458,60.3221884 C375.877793,60.3221884 326.048916,147.46045 384.045856,147.46045 C442.042796,147.46045 507.15609,125.535757 507.15609,214.988036 C507.15609,304.440316 623.863405,346.424632 536.628234,346.424632 C449.393064,346.424632 137.476318,343.595988 137.476318,343.595988 Z" id="bg" fill="#F3F9FF" fill-rule="nonzero"></path>
        <g id="puzzle" transform="translate(232.525084, 104.182371)" fill-rule="nonzero">
            <path d="M118.126087,198.335295 C116.112635,197.299745 113.689836,197.478784 111.84912,198.796839 C106.60497,202.554869 100.349595,206.297605 96.2426221,206.297605 C85.1272542,206.297605 76.1171037,195.03431 76.1171037,181.139404 C76.1171037,167.244498 85.1272542,155.981204 96.2426221,155.981204 C100.349595,155.981204 106.60497,159.723939 111.84912,163.48197 C113.688936,164.799125 116.110836,164.974565 118.123388,163.939915 C120.13504,162.905264 121.39997,160.832365 121.39997,158.570529 L121.39997,120.759003 L83.5897258,120.759003 C81.3279666,120.759003 79.2551371,119.49403 78.2205217,117.48231 C77.1859064,115.46969 77.3613411,113.046809 78.6784515,111.20783 C82.4363545,105.962602 86.1789632,99.7079149 86.1789632,95.6008024 C86.1789632,84.4850578 74.9160502,75.4746018 61.0216154,75.4746018 C47.1271806,75.4746018 35.8642676,84.4850578 35.8642676,95.6008024 C35.8642676,99.7079149 39.6068763,105.963502 43.3647793,111.20783 C44.683689,113.047708 44.8618227,115.471489 43.8263077,117.485009 C42.7907926,119.498529 40.7170635,120.759003 38.453505,120.759003 L0.64326087,120.759003 L0.64326087,221.391805 C0.64326087,232.50755 9.65431104,241.518006 20.7687793,241.518006 L121.398171,241.518006 L121.398171,203.70648 C121.39997,201.444644 120.139538,199.369945 118.126087,198.335295 Z" id="Path" fill="#1B90FB"></path>
            <path d="M124.672953,43.1845106 C126.686405,44.2200608 129.109204,44.0410213 130.94992,42.7229666 C136.19407,38.9649362 142.449445,35.2222006 146.556418,35.2222006 C157.671786,35.2222006 166.681936,46.4854954 166.681936,60.3804012 C166.681936,74.275307 157.671786,85.5386018 146.556418,85.5386018 C142.449445,85.5386018 136.19407,81.7958663 130.94992,78.0378359 C129.110104,76.7206809 126.688204,76.5452401 124.675652,77.5798906 C122.664,78.614541 121.39907,80.6874407 121.39907,82.9492766 L121.39907,120.760802 L159.209314,120.760802 C161.471074,120.760802 163.543903,122.025775 164.578518,124.037495 C165.613134,126.049216 165.437699,128.472997 164.120589,130.311976 C160.362686,135.556304 156.620077,141.811891 156.620077,145.919003 C156.620077,157.034748 167.88299,166.045204 181.777425,166.045204 C195.67186,166.045204 206.934773,157.034748 206.934773,145.919003 C206.934773,141.811891 203.192164,135.556304 199.434261,130.311976 C198.115351,128.472097 197.937217,126.048316 198.972732,124.034796 C200.008247,122.021277 202.081977,120.760802 204.345535,120.760802 L242.155779,120.760802 L242.155779,20.1262006 C242.155779,9.01045593 233.144729,0 222.030261,0 L121.39907,0 L121.39907,37.8115258 C121.39907,40.0751611 122.660401,42.1489605 124.672953,43.1845106 Z" id="Path" fill="#2CCD7F"></path>
            <path d="M198.972732,124.032997 C197.937217,126.046517 198.116251,128.469398 199.434261,130.310176 C203.192164,135.554505 206.934773,141.810091 206.934773,145.917204 C206.934773,157.032948 195.67186,166.043404 181.777425,166.043404 C167.88299,166.043404 156.620077,157.032948 156.620077,145.917204 C156.620077,141.810091 160.362686,135.554505 164.120589,130.310176 C165.437699,128.470298 165.613134,126.048316 164.578518,124.035696 C163.543903,122.023976 161.471074,120.759003 159.209314,120.759003 L121.39907,120.759003 L121.39907,158.570529 C121.39907,160.832365 120.13414,162.905264 118.122488,163.939915 C116.109936,164.974565 113.687137,164.799125 111.848221,163.48197 C106.60407,159.723939 100.348696,155.981204 96.2417224,155.981204 C85.1263545,155.981204 76.116204,167.244498 76.116204,181.139404 C76.116204,195.03431 85.1263545,206.297605 96.2417224,206.297605 C100.348696,206.297605 106.60407,202.554869 111.848221,198.796839 C113.688037,197.477884 116.111736,197.299745 118.125187,198.335295 C120.138639,199.370845 121.39907,201.444644 121.39907,203.70828 L121.39907,241.519805 L222.028462,241.519805 C233.143829,241.519805 242.15398,232.50845 242.15398,221.393605 L242.15398,120.759003 L204.343736,120.759003 C202.081077,120.759003 200.007348,122.020377 198.972732,124.032997 Z" id="Path" fill="#224380"></path>
        </g>
        <g id="paperplane" transform="translate(135.361204, 52.000000)" fill-rule="nonzero">
            <polygon id="Path" fill="#9E95E3" points="76.2151672 16.5930942 57.2097324 26.0965836 0.190729097 0.753945289"></polygon>
            <polygon id="Path" fill="#877CD8" points="54.04201 41.9357325 57.2097324 26.0965836 0.190729097 0.753945289"></polygon>
            <polygon id="Path" fill="#7266D5" points="54.04201 41.9357325 47.7065652 29.2644134 31.8679532 26.0965836"></polygon>
            <polygon id="Path" fill="#9E95E3" points="47.7065652 29.2644134 31.8679532 35.6000729 0.190729097 0.753945289"></polygon>
        </g>
        <g id="plant" transform="translate(464.638796, 212.145897)" fill-rule="nonzero">
            <path d="M57.3896656,69.5402067 C68.0165151,82.2007295 86.7664448,65.3188328 86.7664448,65.3188328 C86.7664448,65.3188328 79.0770033,64.5504924 77.3280535,61.9107842 C77.3280535,61.9107842 89.5014281,62.0637325 92.8418863,54.8805593 C92.8418863,54.8805593 87.446592,55.2296413 84.8249666,53.3735684 C84.8249666,53.3735684 92.8589799,51.2754772 92.5431973,46.7805957 C92.2274147,42.2857143 90.0061405,39.063003 85.7669164,38.1669058 C85.7669164,38.1669058 84.4102207,42.1228693 80.1152174,43.7828085 C80.1152174,43.7828085 78.9159632,39.7710638 81.1165452,38.337848 C81.1165452,38.337848 71.9948361,35.3688511 67.1528361,46.6636353 C67.1528361,46.6636353 66.3980167,44.7778723 68.1514649,38.3558419 C68.1505652,38.3558419 42.6090602,51.9304559 57.3896656,69.5402067 Z" id="Path" fill="#FFE994"></path>
            <path d="M24.2279933,68.7106869 C31.0303645,75.4197204 26.7326622,90.5777994 4.06558863,90.6776657 C4.06558863,90.6776657 0.762916388,81.971307 7.81809365,79.6941763 C7.81809365,79.6941763 5.52304682,77.5672948 3.29277592,78.4678906 C3.29277592,78.4678906 2.56404682,72.6135684 10.5197893,73.0634164 C10.5197893,73.0634164 8.41817057,69.7606322 6.46679599,69.7606322 C6.46769565,69.7615319 16.7697659,61.354772 24.2279933,68.7106869 Z" id="Path" fill="#FFE994"></path>
            <path d="M36.4967324,57.6831125 C49.5274883,51.0253617 47.9314816,37.4858359 47.9314816,37.4858359 L42.6819331,41.3887173 C42.6819331,41.3887173 47.9458763,33.5829544 43.1182709,26.3772888 C43.1182709,26.3772888 40.8430167,31.6315137 38.2906656,32.0813617 C38.2906656,32.0813617 41.7435819,17.8202796 34.6884047,11.5152097 C34.6884047,11.5152097 29.2841137,18.8711246 27.0331505,20.0722188 C27.0331505,20.0722188 33.1877625,4.45979331 22.9801572,1.75800608 C12.7725518,-0.943781155 11.4212542,1.75800608 11.4212542,1.75800608 C11.4212542,1.75800608 9.31963545,11.9659574 11.4212542,14.9682432 C11.4212542,14.9682432 6.76818395,10.4643647 7.21801672,6.86198176 C7.21801672,6.86198176 0.913160535,13.7671489 8.56931438,25.3264438 C8.56931438,25.3264438 2.86543478,23.8248511 0.463327759,20.0722188 C0.463327759,20.0722188 0.914060201,38.2361824 14.4234381,43.7909058 C14.4234381,43.7909058 8.41907023,46.1930942 5.41688629,44.0914043 C5.41688629,44.0914043 14.8876656,68.7232827 36.4967324,57.6831125 Z" id="Path" fill="#FFE994"></path>
            <path d="M14.5790803,78.7099088 C16.145398,76.776462 17.8961472,74.9878663 19.8754114,73.4349909 C21.8501773,71.9450942 24.1380268,70.4740912 26.9224916,70.5064802 C29.8095184,70.6477325 31.8643545,72.7269301 33.4585619,74.633386 C35.0725619,76.6307112 36.3320936,78.8646565 37.3388194,81.1912705 C41.2811538,90.4032584 41.5285619,101.817702 35.9794247,110.325228 L35.8219833,110.237957 C37.8831171,105.723283 38.6829197,100.834334 38.6073478,96.0002675 C38.4238161,91.1697994 37.5799298,86.3366322 35.7698027,81.8408511 C34.8944281,79.5925106 33.7770435,77.4224438 32.3393779,75.5159878 C30.921505,73.6698116 29.057398,71.8443283 26.8550167,71.7003769 C22.2352341,71.7066748 18.0724816,75.4539088 14.7158294,78.8259696 L14.5790803,78.7099088 Z" id="Path" fill="#FFCB01"></path>
            <path d="M18.2632107,18.2944195 C16.5916321,26.9117082 19.6810836,35.937459 25.3300836,42.4026748 C31.0600535,48.890383 37.154388,55.6084134 40.2438395,64.0466626 C43.5096254,72.3733495 44.105204,81.3928024 43.9594582,90.1567416 C43.6220836,98.9566687 42.4975017,107.676523 40.7764415,116.265021 L40.5983077,116.23893 C41.2991472,107.510979 42.1502308,98.8181155 42.1583278,90.1252523 C42.2428963,81.4764742 41.7723712,72.6891429 38.8934415,64.5477933 C36.0801873,56.3308693 30.2845418,49.6380304 24.6391405,42.9793799 C19.0234281,36.1794772 16.156194,26.8973131 18.0895753,18.2467356 L18.2632107,18.2944195 Z" id="Path" fill="#FFCB01"></path>
            <path d="M77.7041137,50.5791125 C75.7725318,56.1212401 70.5724649,59.617459 65.5505318,62.068231 C60.541194,64.5972766 55.1036154,66.8977994 52.0312575,71.4619574 C49.0353712,76.0045228 48.7816656,81.8561459 48.8788294,87.3460912 C48.9642977,92.9314043 49.756903,98.5239149 50.6871572,104.113726 L50.5135217,104.16321 C48.5783411,98.7974225 47.4978428,93.1500304 47.0785987,87.4153678 C46.9256555,81.7616778 47.2621304,75.5546748 50.851796,70.6333374 C54.4306656,65.7290942 60.1318462,63.6247052 65.1564783,61.2585046 C70.2404883,59.0236596 75.3775786,55.9008146 77.5358763,50.5143343 L77.7041137,50.5791125 Z" id="Path" fill="#FFCB01"></path>
            <rect id="Rectangle" fill="#DCEEFD" x="27.2580669" y="87.3244985" width="34.450893" height="47.7369726"></rect>
        </g>
        <g id="man" transform="translate(63.387960, 112.279635)" fill-rule="nonzero">
            <path d="M133.834247,45.1629422 C133.834247,45.1629422 132.728559,43.6892401 132.545027,42.399076 C132.360595,41.1098116 132.545027,35.3976413 130.334548,31.5289483 C128.12407,27.6602553 117.620475,28.3287295 117.614151,29.3183951 C117.598883,31.5289483 124.390458,30.070541 125.724662,35.2141033 C126.08003,36.5843404 124.826796,37.9113921 124.233017,37.6099939 C122.654104,36.8083647 122.090913,32.864997 120.75491,33.0035502 C119.742786,33.1079149 119.050943,39.4975562 121.676167,42.123769 C123.527679,43.9753435 127.939639,47.8350395 129.137993,51.0595502 C130.336348,54.2840608 134.955231,47.2493374 133.834247,45.1629422 Z" id="Path" fill="#F1B282"></path>
            <path d="M136.805843,44.7733739 C136.474766,44.2947356 135.819809,44.1732766 135.339388,44.500766 L126.547856,50.4963404 C126.005358,50.8661155 125.862311,51.604766 126.227575,52.1508815 C130.605348,58.6916717 148.371943,88.483307 156.619177,90.2035258 L165.312645,76.9240122 C142.431452,53.0784681 142.591592,53.1333495 136.805843,44.7733739 Z" id="Path" fill="#F0B701"></path>
            <path d="M172.229274,71.3422979 C168.295037,73.2073678 160.604696,72.4516231 153.868,71.2271368 C151.507278,70.7970821 149.105171,71.723769 147.648612,73.6257264 C146.192054,75.5366809 145.919455,78.0927173 146.946873,80.2636839 L164.078304,116.50614 L127.837077,133.638152 C125.666184,134.665605 123.110234,134.392097 121.198445,132.927392 C119.296552,131.470784 118.369896,129.068596 118.799936,126.707793 C120.025281,119.979866 120.781,112.289264 118.915094,108.345897 C113.882365,97.6979939 98.9991973,94.1621884 85.6859465,100.452863 C72.363699,106.753435 65.6566923,120.491793 70.6894214,131.148693 C72.5454314,135.083064 78.9726421,139.38631 84.9473211,142.707088 C87.0453411,143.881191 88.3183679,146.116936 88.2409967,148.515526 C88.1546288,150.915015 86.7412542,153.065289 84.5703612,154.092742 L82.9113779,154.879076 L49.8999498,170.480705 L48.3282341,171.224754 L2.73318395,74.7683404 C-2.30854181,64.1123404 2.24466555,51.391538 12.9003043,46.3487416 L107.129475,1.80119149 L109.039465,0.899696049 L109.352548,0.753045593 L126.492077,36.9955015 C127.510498,39.1673678 129.660699,40.5798906 132.060107,40.6671611 C134.459515,40.7454347 136.703281,39.4705653 137.868348,37.3733739 C141.189013,31.3984924 145.492114,24.9710638 149.426351,23.1149909 C160.08199,18.0730942 173.819883,24.7893252 180.12114,38.1120243 C186.412502,51.4257264 182.885813,66.3084985 172.229274,71.3422979 Z" id="Path" fill="#355AA2"></path>
            <path d="M147.877127,219.274821 L146.638288,225.047271 C146.638288,225.047271 146.833515,227.933495 151.868943,228.36355 C156.904371,228.793605 158.685709,226.214176 158.685709,226.214176 C158.685709,226.214176 160.159361,219.274821 160.098184,218.783587 C160.037007,218.292353 147.877127,219.274821 147.877127,219.274821 Z" id="Path" fill="#F1B282"></path>
            <path d="M148.641843,223.492596 C148.132632,222.934784 147.30314,222.816024 146.657181,223.205593 C144.392722,224.570432 139.578612,227.464754 139.28712,227.573617 C136.724873,228.530894 129.883816,230.034286 129.887413,232.610116 C129.891013,235.310103 149.719642,234.574152 156.976344,234.215173 C158.448197,234.142298 159.610565,232.938505 159.629458,231.464802 L159.70419,225.494419 C159.707729,225.190322 159.549388,224.907818 159.288485,224.75217 C159.027582,224.596523 158.702803,224.592024 158.437401,224.740474 C157.223753,225.420644 155.336254,226.303246 153.606197,226.38152 C151.683612,226.467891 149.716043,224.668498 148.641843,223.492596 Z" id="Path" fill="#0B224E"></path>
            <path d="M193.251759,199.774809 L197.561157,203.809945 C197.561157,203.809945 200.1351,205.129799 203.097699,201.034383 C206.060298,196.938967 204.766579,194.084231 204.766579,194.084231 C204.766579,194.084231 199.578207,189.246565 199.124776,189.045933 C198.672244,188.846201 193.251759,199.774809 193.251759,199.774809 Z" id="Path" fill="#F1B282"></path>
            <path d="M197.259769,201.291696 C196.519344,201.441046 195.990341,202.090626 195.991241,202.845471 C195.994839,205.488778 195.995739,211.10738 195.93906,211.412377 C195.439746,214.101568 193.204077,220.740426 195.414555,222.063878 C197.730294,223.45121 207.313532,206.07628 210.743957,199.671343 C211.439398,198.372182 211.006659,196.755429 209.753425,195.98079 L204.674813,192.841751 C204.416609,192.681605 204.091829,192.671708 203.824629,192.81566 C203.556528,192.959611 203.385592,193.234918 203.376595,193.539015 C203.334311,194.929945 203.118391,197.001945 202.294298,198.525131 C201.377538,200.217459 198.821589,200.976802 197.259769,201.291696 Z" id="Path" fill="#0B224E"></path>
            <path d="M156.782916,135.161337 C156.782916,135.161337 146.834415,155.243453 144.9919,165.376729 C143.192569,175.274286 170.92296,194.312754 191.613468,201.372669 C192.456455,201.660571 193.386709,201.307891 193.824846,200.532353 L201.729308,186.546578 C202.251114,185.62259 201.968619,184.452085 201.081548,183.869082 L167.652676,161.876012 L176.67992,135.161337 L156.782916,135.161337 L156.782916,135.161337 Z" id="Path" fill="#0B224E"></path>
            <path d="M186.812853,130.00338 C187.181716,142.34721 175.06502,169.246322 173.845973,181.221277 C172.794264,191.555185 165.790368,215.641848 163.890274,222.050383 C163.623074,222.950979 162.714411,223.501593 161.794054,223.318954 L147.824047,220.547891 C147.237465,220.43183 146.726455,220.07465 146.415171,219.564523 C146.103886,219.054395 146.021117,218.437204 146.185756,217.862298 C148.037268,211.388085 153.328201,192.719392 154.388007,187.116985 C155.677227,180.299988 153.835612,150.994188 157.704174,137.003915 C161.572736,123.013641 186.812853,130.00338 186.812853,130.00338 Z" id="Path" fill="#102B5E"></path>
            <path d="M131.451933,127.488729 C131.451933,127.488729 124.730532,126.339818 121.64198,126.758176 C118.553428,127.176535 115.230064,127.830614 115.356916,128.607951 C115.483769,129.384389 122.403997,130.009678 122.403997,130.009678 C122.403997,130.009678 120.997819,132.359684 117.962348,132.507234 C114.927776,132.654784 112.976401,133.018261 112.851348,133.650748 C112.726294,134.283234 121.602395,137.22704 124.787211,135.861301 C127.971127,134.494663 134.486505,132.78524 134.486505,132.78524 L131.451933,127.488729 Z" id="Path" fill="#F1B282"></path>
            <path d="M159.391946,74.3157933 C159.391946,74.3157933 158.780174,71.7399635 158.311448,69.9540669 C157.359602,66.3273921 154.785659,70.5460669 152.224311,69.0489726 C151.332742,68.5280486 150.331415,64.8275988 149.69895,64.4578237 C149.041294,64.0736535 147.618923,65.7488875 147.294144,63.5599271 C146.936977,61.150541 146.688669,52.7923647 148.78309,49.4391976 C151.046649,45.8143222 160.967261,42.9226991 163.828197,47.2232462 C166.689134,51.5237933 168.707084,70.7664924 168.707084,70.7664924 L159.391946,74.3157933 Z" id="Path" fill="#F1B282"></path>
            <path d="M160.00192,57.3925106 C158.248472,58.4028693 159.856174,52.1625775 157.817532,51.5435866 C155.77889,50.923696 145.435435,56.524304 143.654097,49.7756839 C141.872759,43.0270638 148.966622,38.7121216 152.477117,37.7908328 C155.987612,36.8695441 169.634639,34.1542614 173.000288,46.9821277 C176.365936,59.8099939 167.979254,63.5977143 166.782699,62.6125471 C165.587043,61.6273799 167.5861,53.0208875 160.00192,57.3925106 Z" id="Path" fill="#0B224E"></path>
            <path d="M168.757465,67.7920973 C167.755237,67.0408511 158.4401,70.1852888 158.072137,71.2001459 C157.703274,72.2141033 156.905271,78.6622249 158.624532,78.1709909 C160.343793,77.6797568 171.091197,71.4151733 170.845589,70.7404012 C170.59998,70.0647295 169.495191,68.3445106 168.757465,67.7920973 Z" id="Path" fill="#FFE270"></path>
            <path d="M152.729923,141.057046 C153.992154,146.862784 169.226191,138.463222 176.864351,137.371891 C184.602375,136.266164 193.260756,140.503733 195.103271,132.213033 C196.945786,123.922334 185.891595,111.394067 184.602375,102.91893 C182.207465,81.5475502 173.548184,71.7822492 170.60088,71.2298359 C167.653575,70.6774225 158.257468,77.5825897 158.257468,77.5825897 C150.703876,93.515307 156.968247,106.604085 156.968247,115.086419 C156.968247,117.653252 156.412254,120.266869 155.688023,122.90028 C155.072652,125.131526 154.337625,127.377167 153.715057,129.61741 C152.647154,133.474407 151.917525,137.317009 152.729923,141.057046 Z" id="Path" fill="#FFCB01"></path>
            <path d="M153.713258,129.61831 C160.505732,127.96197 174.783425,123.844061 177.845886,117.904267 C181.89888,110.044523 171.521237,91.6817264 171.521237,91.6817264 C174.652973,106.236109 173.179321,122.265094 161.572736,123.013641 C159.811191,123.127903 157.814833,123.074821 155.686224,122.901179 C155.070853,125.131526 154.335826,127.378067 153.713258,129.61831 Z" id="Path" fill="#F0B701"></path>
            <path d="M130.904037,134.671003 C131.466328,135.138845 156.66506,127.144146 166.495706,121.528243 C176.326351,115.91234 171.521237,91.6817264 171.521237,91.6817264 L155.77709,94.4680851 L156.457237,107.378723 C156.457237,107.378723 131.526605,122.355964 131.009298,123.205277 C129.084013,126.354213 130.335448,134.197763 130.904037,134.671003 Z" id="Path" fill="#FFCB01"></path>
        </g>
        <g id="woman" transform="translate(32.799331, 214.844985)">
            <path d="M56.1148395,6.5128997 C58.5133478,6.76841337 59.1871973,10.6380061 60.1291472,11.5997812 C61.0701973,12.5615562 62.5501472,13.8535198 62.674301,14.7397204 C62.7984548,15.625921 60.5528896,16.0856657 61.1970502,18.1801581 C61.8421104,20.2746505 62.4475853,22.9233556 59.3329431,24.3070881 C56.218301,25.6908207 57.3743712,28.4933739 57.8583913,31.2797325 C58.3415117,34.0660912 56.7140167,35.0269666 55.5840368,35.2213009 C54.4540569,35.4156353 42.1412341,33.8249726 41.7588763,25.9895198 C41.4349967,19.3515623 42.2716856,11.2650942 47.1613679,8.66497264 C52.0510502,6.06485106 54.087893,6.29607295 56.1148395,6.5128997 Z" id="Path" fill="#F1B282" fill-rule="nonzero"></path>
            <path d="M83.2460535,131.744292 L77.5115853,131.744292 C76.7144816,130.083453 76.1854783,128.660134 75.9254749,127.474334 C75.5350201,125.695635 74.9484381,122.382954 75.5350201,119.981666 C76.121602,117.580377 82.876291,117.809799 83.7282742,118.57904 C84.5802575,119.34828 84.441709,121.351003 87.8172542,123.144097 C89.856796,124.227331 93.6317926,124.779745 99.1413445,127.188231 C100.214645,127.657872 100.908288,128.717714 100.908288,129.889119 C100.908288,130.961556 100.049107,131.83696 98.9767057,131.855854 C92.9795351,131.963818 89.2468227,132.017799 87.7776689,132.017799 C86.1843612,131.440195 84.6738227,130.728535 83.2442542,129.88372 L83.2442542,131.744292 L83.2460535,131.744292 Z" id="Path" fill="#03193F"></path>
            <path d="M84.9446221,78.6748207 C82.1925452,72.836693 43.4169599,65.8172644 38.4166187,67.4502128 C33.4162776,69.0831611 30.8657258,72.0422614 30.8657258,76.430079 C30.8657258,82.5516109 48.1653946,91.5980547 69.2562542,90.0127903 C70.1478227,100.179356 72.1387826,120.272267 74.0991538,122.232705 C75.5431171,123.676717 88.3777458,122.109447 88.3777458,120.217386 C88.3777458,114.43324 88.0988495,85.3667599 84.9446221,78.6748207 Z" id="Path" fill="#0B224E" fill-rule="nonzero"></path>
            <path d="M22.3252007,117.056754 C22.3252007,117.056754 10.8904515,117.287076 9.45278595,125.632657 L7.80819732,125.531891 L11.7649264,110.662614 L21.1232475,109.782711 L22.3252007,117.056754 Z" id="Path" fill="#F1B282" fill-rule="nonzero"></path>
            <path d="M10.4460167,110.069714 C12.1778729,110.159684 13.1980936,110.238857 15.3105084,110.144389 C16.1040134,110.108401 14.6771438,111.840316 14.1733311,115.35003 C13.737893,118.387404 16.8984181,118.981204 16.2830468,119.374371 C15.3617893,119.962772 15.0190167,119.73245 12.5224448,122.380255 C11.023602,123.970918 8.52882943,126.812158 5.03812709,130.905775 C4.31029766,131.758687 3.15602676,132.114067 2.07462876,131.818067 C1.09039465,131.548158 0.503812709,130.538699 0.756618729,129.549033 C2.07642809,124.395574 2.92031438,121.149471 3.28827759,119.808924 C4.21943144,118.491769 5.25314716,117.283477 6.38942475,116.184049 L4.68185953,115.715307 L6.12582274,110.450286 C7.85228094,110.136292 9.29174582,110.009435 10.4460167,110.069714 Z" id="Path" fill="#03193F"></path>
            <path d="M57.3455819,77.756231 C57.3455819,77.756231 34.6101338,73.6572158 33.4684582,76.3275137 C31.5521706,80.808 35.4693144,95.9309909 39.1768361,105.152875 C28.2782876,105.680097 14.3109799,107.007149 13.8287592,107.796182 C13.0775385,109.026067 19.7989398,121.440973 21.000893,122.131939 C22.2028462,122.822906 50.8401003,121.68479 56.0689565,118.672608 C61.027913,115.817872 57.3455819,77.756231 57.3455819,77.756231 Z" id="Path" fill="#102B5E" fill-rule="nonzero"></path>
            <path d="M84.0053712,61.0335805 C84.0053712,61.0335805 89.0165084,58.1509544 91.8990368,58.2661155 C94.7815652,58.3812766 95.9340368,57.9674164 95.8188796,58.9813739 C95.7037224,59.9953313 92.2445084,61.2639027 91.4375084,61.0335805 C90.6305084,60.8032584 99.6235652,60.4568754 99.7387224,62.4173131 C99.8538796,64.3777508 96.856194,68.8402432 93.2818227,68.3957933 C89.7074515,67.9513435 82.9050803,64.8383951 82.9050803,64.8383951 L84.0053712,61.0335805 Z" id="Path" fill="#F1B282" fill-rule="nonzero"></path>
            <path d="M57.4004615,35.3058723 C57.4004615,35.3058723 58.7229699,29.4893374 58.0086355,28.5707477 C57.294301,27.6521581 49.1307358,25.2031854 48.2130769,25.6116474 C47.2945184,26.0201094 46.7331271,31.734079 46.7331271,31.734079 L57.4004615,35.3058723 Z" id="Path" fill="#1277D7" fill-rule="nonzero"></path>
            <path d="M84.8447592,59.5922675 C83.3144281,58.6736778 71.1716421,60.2049605 62.0895184,42.5511246 C59.42201,36.6707112 58.3037258,34.3198055 56.9146421,32.9306748 C56.525087,32.5411064 49.7587023,27.9769483 48.2121773,28.5716474 C46.8860702,29.0817751 41.4188027,34.0822857 40.4786522,42.5520243 C39.5385017,51.0217629 27.5333645,63.9440973 29.5387191,76.838541 C30.8648261,85.3676791 38.0081706,80.716231 43.314398,80.512 C47.1217826,80.3653495 54.4909431,87.5530213 57.3725719,84.6955866 C58.9550836,83.125617 59.3590334,72.2851793 59.2843612,62.3084498 C64.0750803,66.6395866 71.4766288,70.0251429 82.9059799,69.7966201 C84.9464214,69.2864924 86.3750903,60.5108571 84.8447592,59.5922675 Z" id="Path" fill="#1B90FB" fill-rule="nonzero"></path>
            <path d="M58.2542441,82.4157568 C54.3173077,78.593848 43.1092742,65.487076 50.6916555,46.1742006 C50.6916555,46.1742006 50.7636288,54.7411064 59.2294816,62.2616657 C59.2474749,62.2787599 59.2663679,62.2949544 59.2843612,62.3120486 C59.3437391,70.0872219 59.1098261,78.389617 58.2542441,82.4157568 Z" id="Path" fill="#1277D7" fill-rule="nonzero"></path>
            <polygon id="Path" fill="#03193F" fill-rule="nonzero" points="69.2607525 90.0406809 69.2607525 90.025386 69.5387492 89.992997 75.2588227 89.2777386 75.290311 89.2777386 70.6444381 104.010261"></polygon>
            <path d="M19.3347124,56.4289362 C26.7002742,63.7947477 42.0665619,56.8373982 44.5784281,47.3474043 C47.0902943,37.8574103 45.3188528,30.4781033 48.1105151,27.3975441 C50.9021773,24.3169848 51.8351304,24.2342128 51.8351304,22.2953678 C51.8351304,20.3565228 47.7020669,15.5602432 49.3349599,13.6213982 C50.9678528,11.6825532 61.0692977,9.38652888 59.3347425,4.48858359 C57.6001873,-0.409361702 45.7048094,-2.34820669 38.9483211,6.01896657 C32.1918328,14.3861398 35.0995518,20.1010091 31.8346656,26.9377994 C28.5697793,33.7754894 6.6701204,43.7639149 19.3347124,56.4289362 Z" id="Path" fill="#0B224E" fill-rule="nonzero"></path>
        </g>
    </g>
</svg>