<?xml version="1.0" standalone="no"?><!DOCTYPE svg PUBLIC "-//W3C//DTD SVG 1.1//EN" "http://www.w3.org/Graphics/SVG/1.1/DTD/svg11.dtd"><svg t="1630213117363" class="icon" viewBox="0 0 1024 1024" version="1.1" xmlns="http://www.w3.org/2000/svg" p-id="1062" xmlns:xlink="http://www.w3.org/1999/xlink" width="200" height="200"><defs><style type="text/css"></style></defs><path d="M588.544 375.125333a42.666667 42.666667 0 0 1 60.330667 0.085334 193.706667 193.706667 0 0 1 6.826666 266.410666l-6.826666 7.253334-213.418667 213.333333a193.706667 193.706667 0 0 1-273.664-0.085333 193.706667 193.706667 0 0 1 0-273.578667 42.666667 42.666667 0 0 1 60.416 60.245333 108.373333 108.373333 0 0 0-0.085333 153.002667 108.373333 108.373333 0 0 0 147.370666 5.290667l5.674667-5.248 213.290667-213.333334a108.373333 108.373333 0 0 0 0-153.045333 42.666667 42.666667 0 0 1 0.085333-60.330667z" fill="#049DEE" p-id="1063"></path><path d="M588.544 161.792a193.706667 193.706667 0 0 1 273.664 0.085333 193.706667 193.706667 0 0 1 0 273.578667 42.666667 42.666667 0 1 1-60.416-60.245333 108.373333 108.373333 0 0 0 0.085333-153.002667 108.373333 108.373333 0 0 0-147.370666-5.290667l-5.674667 5.248-213.290667 213.333334a108.373333 108.373333 0 0 0 0 153.045333 42.666667 42.666667 0 1 1-60.416 60.245333 193.706667 193.706667 0 0 1-6.826666-266.410666l6.826666-7.253334 213.418667-213.333333z" fill="#03CD8E" p-id="1064"></path></svg>