<svg height="200" viewBox="0 0 1024 1024" width="200" xmlns="http://www.w3.org/2000/svg"><path d="m896 341.333333h-768a42.666667 42.666667 0 0 0 -42.666667 42.666667v170.666667a42.666667 42.666667 0 0 0 42.666667 42.666666h768a42.666667 42.666667 0 0 0 42.666667-42.666666v-170.666667a42.666667 42.666667 0 0 0 -42.666667-42.666667zm-42.666667 85.333334v85.333333h-682.666666v-85.333333z" fill="#ff5c00"/><path d="m853.333333 170.666667h-682.666666a85.333333 85.333333 0 0 0 -85.333334 85.333333v512a85.333333 85.333333 0 0 0 85.333334 85.333333h682.666666a85.333333 85.333333 0 0 0 85.333334-85.333333v-512a85.333333 85.333333 0 0 0 -85.333334-85.333333zm-682.666666 85.333333h682.666666v512h-682.666666z" fill="#000033"/></svg>