<svg height="200" viewBox="0 0 1024 1024" width="200" xmlns="http://www.w3.org/2000/svg"><path d="m588.544 375.125333a42.666667 42.666667 0 0 1 60.330667.085334 193.706667 193.706667 0 0 1 6.826666 266.410666l-6.826666 7.253334-213.418667 213.333333a193.706667 193.706667 0 0 1 -273.664-.085333 193.706667 193.706667 0 0 1 0-273.578667 42.666667 42.666667 0 0 1 60.416 60.245333 108.373333 108.373333 0 0 0 -.085333 153.002667 108.373333 108.373333 0 0 0 147.370666 5.290667l5.674667-5.248 213.290667-213.333334a108.373333 108.373333 0 0 0 0-153.045333 42.666667 42.666667 0 0 1 .085333-60.330667z" fill="#000033"/><path d="m588.544 161.792a193.706667 193.706667 0 0 1 273.664.085333 193.706667 193.706667 0 0 1 0 273.578667 42.666667 42.666667 0 1 1 -60.416-60.245333 108.373333 108.373333 0 0 0 .085333-153.002667 108.373333 108.373333 0 0 0 -147.370666-5.290667l-5.674667 5.248-213.290667 213.333334a108.373333 108.373333 0 0 0 0 153.045333 42.666667 42.666667 0 1 1 -60.416 60.245333 193.706667 193.706667 0 0 1 -6.826666-266.410666l6.826666-7.253334z" fill="#ff5c00"/></svg>